<?xml version="1.0" encoding="utf-8"?>
<!-- Generator: Adobe Illustrator 19.0.0, SVG Export Plug-In . SVG Version: 6.00 Build 0)  -->
<svg version="1.1" id="Layer_1" xmlns="http://www.w3.org/2000/svg" xmlns:xlink="http://www.w3.org/1999/xlink" x="0px" y="0px"
	 viewBox="-59 261 960 560" style="enable-background:new -59 261 960 560;" xml:space="preserve">
<style type="text/css">
	.st0{display:none;}
	.st1{display:inline;fill:#414D5F;}
	.st2{opacity:0.52;}
	.st3{fill:#1A1A1A;}
	.st4{fill:none;}
	.st5{fill:#231F20;}
	.st6{fill:#4D4D4D;}
	.st7{fill:#FBB03B;}
	.st8{fill:none;stroke:#1A1A1A;stroke-width:4.276;stroke-miterlimit:10;}
	.st9{fill:#4793B8;}
</style>
<g id="background" class="st0">
	<rect id="XMLID_63_" x="-59" y="261" class="st1" width="960" height="560"/>
</g>
<g id="shadow">
	<g id="XMLID_64_" class="st2">
		<ellipse id="XMLID_109_" class="st3" cx="395.3" cy="541.3" rx="131.9" ry="132"/>
		<g id="XMLID_54_">
			<g id="XMLID_58_">
				<g id="XMLID_101_">
					<g id="XMLID_102_">
						<g id="XMLID_107_">
							<path id="XMLID_108_" class="st4" d="M458.9,541.3c0,0-0.1,1.3-0.1,3.5c-0.1,0.5-0.1,1.2-0.2,1.8c0,0.3-0.1,0.7-0.1,1
								c0,0.4-0.1,0.7-0.2,1.1c-0.1,0.7-0.2,1.6-0.3,2.4c-0.2,0.9-0.3,1.7-0.5,2.6c-0.7,3.6-1.9,7.9-3.7,12.1
								c-1.8,4.3-4.3,8.7-7.2,12.7c-2.9,4.1-6.4,7.8-10,10.9s-7.2,5.6-10.5,7.4c-0.8,0.5-1.6,0.9-2.4,1.3c-0.4,0.2-0.7,0.4-1.1,0.6
								c-0.4,0.2-0.7,0.3-1.1,0.5c-0.7,0.3-1.3,0.6-1.9,0.9c-0.6,0.2-1.2,0.4-1.7,0.6c-1,0.4-1.8,0.6-2.4,0.9
								c-0.5,0.2-0.9,0.3-0.9,0.3L457,731.5c0,0,0.9-0.3,2.7-0.9c1.8-0.6,4.3-1.4,7.5-2.7c1.6-0.6,3.4-1.3,5.3-2.1
								c1.9-0.8,4-1.8,6.1-2.7c1.1-0.5,2.2-1,3.4-1.6c1.1-0.6,2.3-1.2,3.5-1.8c2.4-1.2,4.9-2.5,7.5-4c10.3-5.8,21.7-13.5,32.9-23.1
								c11.1-9.6,22-21.1,31.1-33.8c9.2-12.7,16.9-26.5,22.7-40.1c5.7-13.6,9.5-26.9,11.8-38.5c0.5-2.9,1-5.7,1.5-8.3
								c0.4-2.7,0.7-5.2,1-7.5c0.2-1.2,0.3-2.4,0.4-3.5c0.1-1.1,0.2-2.2,0.3-3.2c0.2-2.1,0.3-4,0.4-5.7c0.2-3.4,0.2-6.1,0.2-7.9
								c0.1-1.8,0.1-2.8,0.1-2.8H458.9V541.3z"/>
						</g>
						<g id="XMLID_105_">
							<path id="XMLID_106_" class="st5" d="M515.1,577c0,0-0.1,0.3-0.3,0.9c-0.2,0.6-0.5,1.4-0.9,2.6c-0.4,1.1-0.8,2.4-1.3,4
								c-0.6,1.5-1.3,3.2-2,5c-0.7,1.8-1.7,3.8-2.6,5.8c-0.5,1-1.1,2-1.6,3.1c-0.3,0.5-0.5,1.1-0.8,1.6c-0.2,0.3-0.3,0.5-0.4,0.8
								c-0.2,0.3-0.3,0.5-0.5,0.8c-1.2,2.1-2.5,4.4-3.9,6.6c-0.7,1.1-1.4,2.2-2.1,3.3c-0.7,1.1-1.5,2.1-2.3,3.2
								c-0.4,0.5-0.7,1.1-1.2,1.6l-1.2,1.6c-0.8,1-1.6,2.1-2.5,3.1c-0.9,1-1.7,2-2.5,2.9c-0.4,0.5-0.9,1-1.2,1.4
								c-0.4,0.5-0.9,0.9-1.3,1.3c-0.9,0.9-1.7,1.8-2.5,2.7c-0.9,0.9-1.7,1.7-2.5,2.4c-0.8,0.8-1.6,1.6-2.4,2.3
								c-0.8,0.7-1.6,1.4-2.4,2s-1.4,1.3-2.1,1.9c-0.7,0.5-1.4,1.1-2,1.6c-0.6,0.5-1.2,1-1.8,1.4c-0.3,0.2-0.5,0.4-0.8,0.6
								c-0.3,0.2-0.5,0.4-0.7,0.5c-1.9,1.3-3,2.1-3,2.1l7.7,11.2c0,0,1.2-0.9,3.3-2.4c0.3-0.2,0.5-0.4,0.8-0.6
								c0.3-0.2,0.6-0.4,0.9-0.7c0.6-0.5,1.3-1,2-1.6c0.7-0.5,1.4-1.1,2.2-1.8c0.8-0.6,1.5-1.3,2.4-2c0.9-0.7,1.7-1.5,2.6-2.2
								c0.9-0.8,1.8-1.7,2.7-2.5c0.9-0.9,1.9-1.8,2.8-2.7c0.9-1,1.9-1.9,2.8-2.9c0.5-0.5,1-1,1.4-1.5c0.5-0.5,0.9-1.1,1.4-1.6
								c0.9-1.1,1.9-2.1,2.8-3.3c0.9-1.1,1.8-2.3,2.7-3.4c0.4-0.6,0.9-1.2,1.3-1.7c0.4-0.6,0.9-1.2,1.3-1.8c0.9-1.2,1.7-2.4,2.6-3.6
								c0.8-1.2,1.6-2.5,2.4-3.6c1.6-2.4,2.9-4.9,4.3-7.3c0.2-0.3,0.3-0.6,0.5-0.9c0.2-0.3,0.3-0.6,0.5-0.9c0.3-0.6,0.6-1.2,0.9-1.8
								c0.6-1.2,1.2-2.4,1.8-3.5c1-2.3,2-4.4,2.9-6.5c0.8-2,1.5-3.9,2.2-5.6c0.6-1.7,1.1-3.2,1.5-4.4c0.4-1.2,0.7-2.2,0.9-2.8
								c0.2-0.6,0.3-1,0.3-1L515.1,577z"/>
						</g>
						<path id="XMLID_104_" class="st5" d="M520,547.8l13.6,0.7c0,0-0.1,1.2-0.2,2.9c-0.2,1.8-0.3,4.1-0.6,6.4
							c-0.3,2.4-0.5,4.7-0.9,6.4c-0.3,1.7-0.5,2.9-0.5,2.9l-13.4-2.5c0,0,0.2-1,0.5-2.6c0.3-1.6,0.5-3.7,0.8-5.8
							c0.3-2.1,0.4-4.2,0.5-5.8C520,548.8,520,547.8,520,547.8z"/>
						<path id="XMLID_103_" class="st5" d="M455.5,650.9l6.6,11.9c0,0-0.3,0.2-0.7,0.4c-0.5,0.2-1.1,0.6-1.9,1
							c-0.8,0.4-1.7,0.9-2.7,1.4c-0.5,0.3-1,0.5-1.5,0.7c-0.5,0.2-1.1,0.5-1.6,0.7c-1.1,0.5-2.1,1-3.2,1.4c-0.5,0.2-1,0.4-1.4,0.6
							c-0.5,0.2-0.9,0.4-1.3,0.5c-1.7,0.6-2.7,1.1-2.7,1.1l-4.9-12.7c0,0,1-0.4,2.5-1c0.4-0.2,0.7-0.3,1.2-0.5s0.9-0.4,1.3-0.6
							c0.9-0.4,1.9-0.9,2.8-1.3c0.5-0.2,1-0.4,1.4-0.6c0.5-0.2,0.9-0.5,1.3-0.7c0.9-0.4,1.7-0.9,2.4-1.2c0.7-0.4,1.3-0.6,1.7-0.9
							C455.3,651,455.5,650.9,455.5,650.9z"/>
					</g>
				</g>
				<g id="XMLID_93_">
					<g id="XMLID_94_">
						<g id="XMLID_99_">
							<path id="XMLID_100_" class="st4" d="M414.9,601.9c0,0-0.1,0-0.2,0.1c-0.2,0.1-0.4,0.2-0.6,0.2c-0.6,0.2-1.4,0.4-2.4,0.7
								c-0.5,0.2-1.1,0.3-1.8,0.4c-0.6,0.1-1.3,0.3-2.1,0.5c-0.7,0.1-1.5,0.3-2.4,0.4c-0.4,0.1-0.9,0.1-1.3,0.2s-0.9,0.1-1.4,0.2
								c-3.7,0.4-8.2,0.6-12.9,0.2c-4.7-0.4-9.6-1.3-14.3-2.8c-4.7-1.6-9.2-3.6-13.3-6c-4-2.5-7.5-5.2-10.3-7.8
								c-0.6-0.7-1.3-1.3-2-1.9c-0.6-0.6-1.1-1.2-1.7-1.8c-0.3-0.3-0.5-0.5-0.7-0.9c-0.2-0.3-0.5-0.5-0.7-0.8
								c-0.4-0.5-0.9-0.9-1.2-1.4c-0.6-0.9-1.2-1.6-1.6-2c-0.3-0.5-0.5-0.7-0.5-0.7l-110.2,80.2c0,0,0.6,0.8,1.7,2.3
								c1.1,1.4,2.8,3.6,4.9,6.3c0.3,0.3,0.5,0.7,0.8,1c0.3,0.3,0.6,0.7,0.9,1.1c0.6,0.7,1.3,1.5,1.9,2.2c0.7,0.8,1.4,1.6,2.1,2.5
								c0.7,0.9,1.5,1.7,2.3,2.6c1.7,1.8,3.4,3.6,5.2,5.5c1.9,1.9,4,3.8,6.1,5.8c8.6,8,19.4,16.5,32,24.2
								c12.6,7.6,26.9,14.3,41.9,19.2c15,4.9,30.6,7.9,45.2,9c14.6,1.2,28.3,0.7,40-0.7c1.4-0.2,2.9-0.4,4.3-0.5
								c1.4-0.2,2.8-0.4,4.1-0.6c2.7-0.5,5.2-0.9,7.5-1.3c2.4-0.5,4.5-1,6.6-1.4c2-0.5,3.9-0.9,5.6-1.4c3.3-0.9,5.9-1.7,7.7-2.2
								c0.9-0.3,1.5-0.5,2-0.6c0.4-0.2,0.7-0.2,0.7-0.2L414.9,601.9z"/>
						</g>
						<g id="XMLID_97_">
							<path id="XMLID_98_" class="st5" d="M398.3,666.4c0,0-0.3,0-1,0c-0.6,0-1.5,0.1-2.7,0.1c-2.3-0.1-5.6-0.1-9.6-0.4
								c-7.9-0.6-18.4-2.3-28.5-5.7c-1.2-0.4-2.5-0.9-3.7-1.3c-0.6-0.2-1.2-0.5-1.9-0.7c-0.6-0.3-1.2-0.5-1.8-0.7s-1.2-0.5-1.8-0.7
								l-0.9-0.4l-0.9-0.4c-1.2-0.5-2.3-1.1-3.4-1.6c-1.1-0.5-2.2-1.1-3.3-1.6s-2.1-1.1-3.1-1.6c-2-1.1-3.8-2.2-5.6-3.2
								c-1.7-1.1-3.2-2-4.5-2.9s-2.5-1.8-3.4-2.4c-1-0.7-1.7-1.2-2.2-1.6s-0.7-0.6-0.7-0.6l-8.3,10.9c0,0,0.3,0.2,0.9,0.6
								c0.5,0.4,1.4,1,2.4,1.8c1.1,0.7,2.3,1.7,3.8,2.7c1.5,1,3.2,2,5.1,3.3c1.9,1.1,4,2.3,6.1,3.5c1.1,0.6,2.3,1.2,3.5,1.8
								c1.2,0.6,2.4,1.2,3.6,1.8c1.2,0.6,2.5,1.1,3.8,1.7c0.3,0.2,0.6,0.3,1,0.4l1,0.4c0.6,0.3,1.3,0.5,2,0.8c0.7,0.3,1.3,0.5,2,0.8
								s1.3,0.5,2,0.7c1.4,0.5,2.8,1,4.2,1.4c11.2,3.7,22.8,5.6,31.6,6.3c4.4,0.4,8.1,0.4,10.6,0.5c1.3,0.1,2.3-0.1,3-0.1
								c0.7,0,1.1,0,1.1,0L398.3,666.4z"/>
						</g>
						<path id="XMLID_96_" class="st5" d="M427.6,662.1l3.5,13.2c0,0-0.3,0.1-0.8,0.2c-0.5,0.2-1.2,0.3-2.1,0.5
							c-0.9,0.2-1.9,0.4-2.9,0.7s-2.2,0.5-3.4,0.7c-1.2,0.2-2.3,0.4-3.4,0.6c-0.5,0.1-1.1,0.2-1.5,0.3c-0.3,0.1-0.5,0.1-0.7,0.1
							c-0.2,0.1-0.5,0.1-0.7,0.1c-1.8,0.2-2.9,0.4-2.9,0.4l-1.7-13.5c0,0,1.1-0.1,2.6-0.3c0.2,0,0.4-0.1,0.6-0.1
							c0.2-0.1,0.4-0.1,0.6-0.1c0.4-0.1,0.9-0.2,1.4-0.3c1-0.2,2-0.4,3-0.5c1.1-0.2,2.1-0.4,3-0.6s1.9-0.4,2.6-0.6
							c0.7-0.2,1.4-0.3,1.9-0.4C427.4,662.1,427.6,662.1,427.6,662.1z"/>
						<path id="XMLID_95_" class="st5" d="M309.8,632.5l-9.3,9.9c0,0-0.9-0.8-2.1-2c-0.3-0.3-0.6-0.6-1-1c-0.4-0.4-0.7-0.7-1.1-1.1
							c-0.7-0.8-1.5-1.7-2.4-2.5c-0.4-0.4-0.8-0.9-1.2-1.3c-0.4-0.4-0.7-0.9-1.1-1.3c-0.7-0.9-1.4-1.6-2-2.3
							c-0.6-0.6-1.1-1.2-1.4-1.6c-0.3-0.4-0.5-0.6-0.5-0.6l10.6-8.6c0,0,0.2,0.2,0.4,0.6c0.3,0.4,0.7,0.9,1.2,1.4
							c0.5,0.6,1.1,1.3,1.8,2c0.3,0.4,0.6,0.7,1,1.2c0.4,0.4,0.7,0.7,1.1,1.1c0.7,0.7,1.4,1.6,2.1,2.2c0.3,0.4,0.7,0.7,1,1
							s0.6,0.6,0.9,0.9C309,631.7,309.8,632.5,309.8,632.5z"/>
					</g>
				</g>
				<g id="XMLID_84_">
					<g id="XMLID_85_">
						<g id="XMLID_91_">
							<path id="XMLID_92_" class="st4" d="M343.6,578.7c0,0-0.2-0.3-0.5-0.7c-0.2-0.2-0.4-0.5-0.6-0.9c-0.3-0.3-0.5-0.8-0.8-1.2
								c-0.3-0.5-0.6-1-1-1.5c-0.3-0.6-0.6-1.2-1.1-1.9c-0.2-0.3-0.4-0.6-0.6-1c-0.2-0.4-0.4-0.7-0.5-1.1c-0.2-0.4-0.4-0.7-0.6-1.2
								l-0.2-0.3l-0.1-0.3c-0.1-0.2-0.2-0.4-0.3-0.6c-1.5-3.4-3.1-7.5-4.1-12c-1.1-4.5-1.7-9.5-1.7-14.6c0.1-5.1,0.6-10.1,1.7-14.6
								s2.6-8.6,4.1-12c0.1-0.2,0.2-0.4,0.3-0.6l0.1-0.3l0.2-0.3c0.2-0.4,0.4-0.8,0.6-1.2c0.2-0.4,0.4-0.7,0.5-1.1
								c0.2-0.4,0.4-0.7,0.6-1c0.4-0.6,0.7-1.3,1.1-1.9c0.4-0.5,0.7-1.1,1-1.5c0.3-0.5,0.5-0.9,0.8-1.2c0.3-0.3,0.5-0.6,0.6-0.9
								c0.3-0.5,0.5-0.7,0.5-0.7l-110.2-80.2c0,0-0.6,0.8-1.7,2.3c-0.5,0.7-1.2,1.7-2,2.8c-0.7,1.1-1.6,2.4-2.5,3.8
								c-0.9,1.4-1.9,3-3,4.8c-1.1,1.8-2.2,3.7-3.4,5.8c-0.6,1.1-1.2,2.1-1.8,3.2c-0.6,1.1-1.2,2.3-1.8,3.5
								c-0.6,1.2-1.2,2.4-1.9,3.7c-0.2,0.3-0.3,0.6-0.5,1c-0.2,0.3-0.3,0.6-0.4,1c-0.3,0.6-0.6,1.3-0.9,2
								c-5,10.7-9.7,23.7-13.1,38.1c-3.4,14.4-5.3,30.1-5.3,45.7c0,15.6,1.9,31.3,5.3,45.7c3.4,14.4,8.1,27.4,13.1,38.1
								c0.3,0.7,0.6,1.3,0.9,2c0.2,0.3,0.3,0.6,0.4,1c0.2,0.3,0.3,0.6,0.5,1c0.6,1.3,1.3,2.5,1.9,3.7c0.6,1.2,1.2,2.4,1.8,3.5
								c0.6,1.1,1.2,2.2,1.8,3.2c1.2,2.1,2.3,4,3.4,5.8c1.1,1.8,2.1,3.4,3,4.8c1,1.4,1.8,2.7,2.5,3.8c0.7,1.1,1.4,2,2,2.8
								c1.1,1.5,1.7,2.3,1.7,2.3L343.6,578.7z"/>
						</g>
						<g id="XMLID_89_">
							<path id="XMLID_90_" class="st5" d="M277.3,582.9c0,0-0.4-1.2-1.2-3.4c-0.1-0.3-0.2-0.6-0.3-0.9c-0.1-0.3-0.2-0.6-0.3-1
								c-0.2-0.7-0.4-1.4-0.6-2.2c-0.2-0.8-0.5-1.6-0.7-2.5c-0.3-0.9-0.4-1.8-0.6-2.8c-0.2-1-0.5-2-0.7-3c-0.1-0.5-0.2-1.1-0.3-1.6
								s-0.2-1.1-0.3-1.7c-0.2-1.1-0.4-2.2-0.6-3.4c-0.2-1.2-0.3-2.4-0.5-3.6c-0.7-4.9-0.9-10.2-1-15.5c0.1-1.3,0.1-2.7,0.1-4
								c0.1-1.3,0.1-2.6,0.2-4c0.2-2.6,0.3-5.2,0.7-7.6c0.2-1.2,0.3-2.5,0.5-3.6c0.2-1.2,0.4-2.4,0.6-3.4c0.2-1.1,0.4-2.2,0.6-3.3
								c0.3-1,0.5-2,0.7-3c0.2-1,0.4-1.9,0.6-2.8c0.3-0.9,0.5-1.7,0.7-2.5c0.2-0.8,0.4-1.5,0.6-2.2c0.1-0.3,0.2-0.6,0.3-1
								c0.1-0.3,0.2-0.6,0.3-0.9c0.7-2.2,1.2-3.4,1.2-3.4l-12.9-4.5c0,0-0.5,1.4-1.3,3.8c-0.1,0.3-0.2,0.6-0.3,1
								c-0.1,0.3-0.2,0.7-0.3,1.1c-0.2,0.7-0.4,1.6-0.7,2.4c-0.3,0.9-0.5,1.8-0.8,2.7c-0.3,1-0.5,2-0.7,3.1
								c-0.3,1.1-0.5,2.2-0.7,3.4c-0.3,1.2-0.4,2.4-0.7,3.6c-0.2,1.2-0.4,2.5-0.7,3.8c-0.2,1.3-0.3,2.7-0.5,4
								c-0.4,2.7-0.6,5.6-0.8,8.4c-0.2,1.4-0.2,2.9-0.2,4.3s-0.1,2.9-0.1,4.4c0.1,5.9,0.4,11.8,1.1,17.2c0.2,1.4,0.4,2.7,0.5,4
								c0.2,1.3,0.5,2.6,0.7,3.8c0.1,0.6,0.2,1.2,0.3,1.8c0.1,0.6,0.2,1.2,0.4,1.8c0.3,1.2,0.5,2.3,0.7,3.4c0.3,1.1,0.5,2.1,0.7,3
								c0.3,1,0.5,1.9,0.8,2.7c0.3,0.9,0.5,1.7,0.7,2.4c0.1,0.4,0.2,0.7,0.3,1.1s0.2,0.6,0.3,1c0.8,2.5,1.3,3.8,1.3,3.8L277.3,582.9
								z"/>
						</g>
						<path id="XMLID_88_" class="st5" d="M290.5,609.4l-11.4,7.4c0,0-0.6-1-1.6-2.5c-0.2-0.4-0.5-0.7-0.7-1.2
							c-0.3-0.4-0.5-0.9-0.8-1.4c-0.5-1-1.1-2-1.7-3c-0.3-0.5-0.6-1-0.9-1.5c-0.3-0.5-0.5-1-0.7-1.5c-0.5-1-1-1.9-1.4-2.7
							c-0.4-0.8-0.7-1.4-1-1.9c-0.2-0.5-0.3-0.7-0.3-0.7l12.3-5.8c0,0,0.1,0.3,0.3,0.6c0.2,0.4,0.5,1,0.9,1.7
							c0.4,0.7,0.8,1.6,1.2,2.4c0.2,0.4,0.5,0.9,0.7,1.3c0.3,0.4,0.5,0.9,0.8,1.4c0.5,0.9,1.1,1.8,1.5,2.7c0.3,0.4,0.5,0.9,0.7,1.2
							c0.3,0.4,0.5,0.7,0.7,1.1C289.9,608.5,290.5,609.4,290.5,609.4z"/>
						<path id="XMLID_87_" class="st5" d="M282.1,488.1l-12.3-5.8c0,0,0.1-0.3,0.3-0.7c0.2-0.5,0.5-1.1,1-1.9
							c0.4-0.8,0.9-1.7,1.4-2.7c0.5-1,1-2,1.7-3c0.6-1,1.2-2,1.7-3c0.3-0.5,0.5-1,0.8-1.4c0.3-0.4,0.5-0.9,0.7-1.2
							c1-1.5,1.6-2.5,1.6-2.5l11.4,7.4c0,0-0.6,0.9-1.4,2.2c-0.2,0.3-0.5,0.7-0.7,1.1s-0.5,0.8-0.7,1.2c-0.5,0.9-1,1.8-1.5,2.7
							s-1,1.9-1.5,2.7c-0.4,0.9-0.9,1.7-1.2,2.4c-0.4,0.7-0.7,1.3-0.9,1.7C282.2,487.9,282.1,488.1,282.1,488.1z"/>
					</g>
				</g>
				<g id="XMLID_76_">
					<g id="XMLID_77_">
						<g id="XMLID_82_">
							<path id="XMLID_83_" class="st4" d="M343.6,503.9c0,0,0.2-0.3,0.5-0.7c0.4-0.5,0.9-1.1,1.6-2c0.3-0.5,0.7-0.9,1.2-1.4
								c0.2-0.3,0.4-0.5,0.7-0.8c0.2-0.3,0.5-0.6,0.7-0.9c0.5-0.5,1.1-1.1,1.7-1.8c0.6-0.6,1.3-1.2,2-1.9c2.8-2.6,6.3-5.3,10.3-7.8
								c4-2.4,8.5-4.5,13.3-6c4.7-1.6,9.6-2.5,14.3-2.8c4.7-0.4,9.2-0.2,12.9,0.2c0.5,0.1,0.9,0.1,1.4,0.2c0.4,0.1,0.9,0.1,1.3,0.2
								c0.9,0.2,1.7,0.3,2.4,0.4c0.7,0.2,1.4,0.3,2.1,0.5c0.6,0.2,1.2,0.2,1.8,0.4c1,0.3,1.9,0.5,2.4,0.7c0.3,0.1,0.5,0.2,0.6,0.2
								c0.2,0.1,0.2,0.1,0.2,0.1L457.1,351c0,0-0.2-0.1-0.7-0.2c-0.4-0.2-1.1-0.4-2-0.6c-1.8-0.5-4.4-1.3-7.7-2.2
								c-1.7-0.5-3.5-0.9-5.6-1.4c-2-0.5-4.2-1-6.6-1.4c-2.4-0.4-4.9-0.9-7.5-1.3c-1.3-0.3-2.7-0.4-4.1-0.6
								c-1.4-0.2-2.8-0.4-4.3-0.5c-11.7-1.4-25.4-1.9-40-0.7c-14.6,1.2-30.2,4.1-45.2,9c-15,4.9-29.3,11.5-41.9,19.2
								c-12.6,7.6-23.4,16.2-32,24.2c-2.1,2-4.2,4-6.1,5.8c-1.9,1.9-3.6,3.7-5.2,5.5c-0.9,0.9-1.6,1.7-2.3,2.6
								c-0.7,0.9-1.4,1.7-2.1,2.5s-1.3,1.6-1.9,2.2c-0.3,0.4-0.6,0.7-0.9,1.1c-0.3,0.4-0.5,0.7-0.8,1c-2.1,2.7-3.8,4.8-4.9,6.3
								c-1.1,1.5-1.7,2.3-1.7,2.3L343.6,503.9z"/>
						</g>
						<g id="XMLID_80_">
							<path id="XMLID_81_" class="st5" d="M319.3,441.9c0,0,0.3-0.2,0.7-0.6s1.2-0.9,2.2-1.6s2.1-1.5,3.4-2.4
								c1.3-0.9,2.9-1.9,4.5-2.9c1.7-1,3.6-2.1,5.6-3.2c1-0.5,2-1.1,3.1-1.6s2.1-1.1,3.3-1.6c2.2-1,4.6-2.1,7-3
								c1.2-0.5,2.4-1,3.7-1.4c1.2-0.4,2.5-0.9,3.7-1.3c0.6-0.2,1.2-0.4,1.9-0.6c0.6-0.2,1.3-0.4,1.9-0.5c1.3-0.4,2.5-0.7,3.8-1.1
								c1.3-0.3,2.5-0.6,3.8-0.9c0.6-0.2,1.2-0.3,1.9-0.4c0.6-0.2,1.2-0.2,1.8-0.3c2.5-0.4,4.8-0.9,7.1-1.1c1.1-0.2,2.2-0.3,3.3-0.4
								c1.1-0.1,2.1-0.2,3.1-0.3c4-0.4,7.3-0.4,9.6-0.4c0.6-0.1,1.1,0,1.5,0s0.9,0,1.1,0.1c0.6,0,1,0,1,0l0.3-13.6c0,0-0.4,0-1.1,0
								c-0.3,0-0.7,0-1.3-0.1c-0.5,0-1.1-0.1-1.7,0c-2.6,0.1-6.3,0.1-10.6,0.5c-8.8,0.7-20.4,2.6-31.6,6.3c-1.4,0.5-2.8,1-4.2,1.4
								c-1.4,0.5-2.7,1.1-4.1,1.6c-2.7,1-5.3,2.2-7.8,3.4c-1.3,0.5-2.5,1.2-3.6,1.8c-1.2,0.6-2.4,1.2-3.5,1.8
								c-2.2,1.2-4.3,2.4-6.1,3.5c-1.9,1.2-3.5,2.3-5.1,3.3c-1.5,1-2.7,1.9-3.8,2.7c-1,0.7-1.9,1.3-2.4,1.8s-0.9,0.6-0.9,0.6
								L319.3,441.9z"/>
						</g>
						<path id="XMLID_79_" class="st5" d="M298.1,462.6l-10.6-8.6c0,0,0.2-0.2,0.5-0.6c0.3-0.4,0.8-1,1.4-1.6c0.6-0.6,1.2-1.4,2-2.3
							c0.4-0.4,0.7-0.9,1.1-1.3c0.4-0.4,0.8-0.9,1.2-1.3c0.8-0.9,1.6-1.7,2.4-2.5c0.4-0.4,0.7-0.8,1.1-1.1c0.4-0.4,0.7-0.7,1-1
							c1.3-1.2,2.1-2,2.1-2l9.4,10c0,0-0.7,0.7-1.9,1.8c-0.3,0.3-0.6,0.6-0.9,0.9c-0.3,0.3-0.6,0.7-1,1c-0.7,0.7-1.4,1.5-2.1,2.2
							c-0.4,0.4-0.7,0.7-1.1,1.2c-0.3,0.4-0.7,0.8-1,1.2c-0.6,0.7-1.2,1.4-1.8,2s-1,1.1-1.2,1.4
							C298.3,462.4,298.1,462.6,298.1,462.6z"/>
						<path id="XMLID_78_" class="st5" d="M410.8,417.2l1.7-13.5c0,0,1.2,0.2,2.9,0.4c0.9,0.1,1.9,0.3,3,0.5
							c1.1,0.2,2.2,0.4,3.4,0.6c0.6,0.1,1.2,0.2,1.7,0.3c0.6,0.1,1.1,0.3,1.7,0.4c1.1,0.3,2.1,0.5,2.9,0.7s1.5,0.4,2.1,0.5
							c0.5,0.2,0.8,0.2,0.8,0.2l-3.5,13.2c0,0-0.3-0.1-0.7-0.2c-0.4-0.1-1.1-0.3-1.9-0.4c-0.7-0.2-1.7-0.4-2.6-0.6
							c-0.5-0.1-1-0.2-1.5-0.3c-0.5-0.1-1-0.2-1.5-0.3c-1-0.2-2.1-0.4-3-0.5c-1-0.2-1.9-0.4-2.7-0.4
							C411.9,417.4,410.8,417.2,410.8,417.2z"/>
					</g>
				</g>
				<g id="XMLID_59_">
					<g id="XMLID_65_">
						<g id="XMLID_74_">
							<path id="XMLID_75_" class="st4" d="M414.9,480.6c0,0,0.3,0.1,0.9,0.3c0.5,0.2,1.4,0.4,2.4,0.9c0.5,0.2,1.1,0.4,1.7,0.6
								c0.6,0.3,1.2,0.6,1.9,0.9c0.4,0.2,0.7,0.3,1.1,0.5c0.4,0.2,0.7,0.4,1.1,0.6c0.7,0.4,1.6,0.7,2.4,1.3
								c3.3,1.8,6.9,4.3,10.5,7.4c3.6,3.1,7.1,6.7,10,10.9c2.9,4.1,5.4,8.4,7.2,12.7c1.8,4.3,3,8.5,3.7,12.1
								c0.2,0.9,0.3,1.8,0.5,2.6c0.1,0.9,0.2,1.7,0.3,2.4c0.1,0.4,0.1,0.7,0.2,1.1c0,0.4,0.1,0.7,0.1,1c0.1,0.6,0.1,1.3,0.2,1.8
								c0.1,2.2,0.1,3.5,0.1,3.5h136.3c0,0,0-1-0.1-2.8c-0.1-1.8-0.1-4.5-0.2-7.9c-0.1-1.7-0.3-3.6-0.4-5.7c-0.1-1-0.2-2.1-0.3-3.2
								c-0.1-1.1-0.3-2.2-0.4-3.5c-0.3-2.4-0.6-4.9-1-7.5c-0.4-2.7-1-5.5-1.5-8.3c-2.3-11.6-6-24.9-11.8-38.5
								c-5.7-13.6-13.4-27.4-22.7-40.1c-9.1-12.6-20-24.1-31.1-33.7c-11.1-9.6-22.5-17.3-32.9-23.1c-2.6-1.5-5.1-2.7-7.5-4
								c-1.2-0.6-2.4-1.2-3.5-1.8c-1.2-0.5-2.3-1.1-3.4-1.6c-2.2-1-4.2-1.9-6.1-2.7c-1.9-0.7-3.7-1.5-5.3-2.1
								c-3.2-1.3-5.8-2.1-7.5-2.7S457,351,457,351L414.9,480.6z"/>
						</g>
						<g id="XMLID_72_">
							<path id="XMLID_73_" class="st5" d="M466.2,438.3c0,0,1.1,0.7,3,2.1c1,0.6,2,1.6,3.3,2.6c0.6,0.5,1.3,1,2,1.6
								s1.4,1.2,2.1,1.9s1.5,1.3,2.4,2c0.8,0.7,1.6,1.5,2.4,2.3c0.8,0.8,1.7,1.6,2.5,2.4c0.8,0.9,1.7,1.8,2.5,2.7
								c0.4,0.4,0.9,0.9,1.3,1.3c0.4,0.5,0.9,1,1.2,1.4c0.9,1,1.7,1.9,2.5,2.9c0.8,1,1.6,2,2.5,3.1l1.2,1.6c0.4,0.5,0.7,1.1,1.2,1.6
								c0.7,1.1,1.5,2.1,2.3,3.2c0.7,1.1,1.4,2.2,2.1,3.3c1.4,2.1,2.7,4.4,3.9,6.6c0.2,0.3,0.3,0.5,0.5,0.8c0.2,0.3,0.3,0.5,0.4,0.8
								c0.3,0.5,0.5,1.1,0.8,1.6c0.5,1.1,1.1,2.1,1.6,3.1c0.9,2.1,1.8,4,2.6,5.8c0.7,1.9,1.4,3.5,2,5c0.5,1.5,1,2.8,1.3,4
								c0.4,1.1,0.7,1.9,0.9,2.6c0.2,0.6,0.3,0.9,0.3,0.9l13.1-3.9c0,0-0.1-0.4-0.3-1c-0.2-0.7-0.5-1.6-0.9-2.8
								c-0.4-1.2-0.9-2.7-1.5-4.4c-0.6-1.7-1.4-3.5-2.2-5.6c-0.9-2-1.9-4.2-2.9-6.5c-0.5-1.1-1.2-2.3-1.8-3.5
								c-0.3-0.6-0.6-1.2-0.9-1.8c-0.2-0.3-0.3-0.6-0.5-0.9c-0.2-0.3-0.3-0.6-0.5-0.9c-1.4-2.4-2.7-4.9-4.3-7.3
								c-0.8-1.2-1.5-2.5-2.4-3.6c-0.9-1.2-1.7-2.4-2.6-3.6c-6.8-9.6-15.2-18-21.9-23.7c-0.9-0.7-1.6-1.4-2.4-2
								c-0.8-0.6-1.5-1.2-2.2-1.8c-1.4-1.1-2.6-2.1-3.7-2.8c-2.1-1.5-3.3-2.4-3.3-2.4L466.2,438.3z"/>
						</g>
						<path id="XMLID_71_" class="st5" d="M440,424.5l4.9-12.7c0,0,1.1,0.4,2.7,1.1c1.7,0.6,3.8,1.6,5.9,2.6
							c0.5,0.3,1.1,0.5,1.6,0.7s1,0.5,1.5,0.7c1,0.5,1.9,1,2.7,1.4c0.8,0.4,1.4,0.7,1.9,1c0.4,0.3,0.7,0.4,0.7,0.4l-6.6,11.9
							c0,0-0.2-0.2-0.6-0.4s-1-0.5-1.7-0.9c-0.7-0.4-1.5-0.8-2.4-1.2c-0.4-0.2-0.9-0.5-1.4-0.7s-1-0.4-1.4-0.6
							c-1.9-0.9-3.8-1.8-5.3-2.4C440.9,424.9,440,424.5,440,424.5z"/>
						<path id="XMLID_70_" class="st5" d="M517.9,517.8l13.4-2.6c0,0,0.2,1.2,0.5,2.9c0.4,1.7,0.6,4.1,0.9,6.4
							c0.1,0.6,0.2,1.2,0.2,1.7c0.1,0.3,0.1,0.6,0.1,0.9c0,0.3,0.1,0.5,0.1,0.9c0.1,1.1,0.2,2.1,0.2,3c0.1,1.8,0.2,2.9,0.2,2.9
							l-13.6,0.7c0,0-0.1-1.1-0.2-2.6c-0.1-0.8-0.1-1.7-0.2-2.7c0-0.3-0.1-0.5-0.1-0.7c-0.1-0.3-0.1-0.5-0.1-0.7
							c-0.1-0.5-0.1-1-0.2-1.6c-0.3-2.1-0.5-4.2-0.8-5.8C518.1,518.8,517.9,517.8,517.9,517.8z"/>
					</g>
				</g>
			</g>
		</g>
	</g>
</g>
<g id="Layer_2">
	<g id="XMLID_12_">
		<ellipse id="XMLID_191_" class="st6" cx="402.6" cy="541.1" rx="126.4" ry="126.4"/>
		<g id="XMLID_126_">
			<g id="XMLID_130_">
				<g id="XMLID_180_">
					<g id="XMLID_181_">
						<g id="XMLID_189_">
							<path id="XMLID_190_" class="st4" d="M480.9,541.1c0,0-0.1,1.1-0.1,3c0,1-0.1,2.1-0.2,3.5c0,0.3-0.1,0.7-0.1,1
								c0,0.2,0,0.4-0.1,0.5c0,0.2-0.1,0.4-0.1,0.5c-0.1,0.7-0.2,1.6-0.3,2.4c-0.8,6.5-3.2,15-6.9,22.9c-1.9,4-4.2,7.7-6.6,11.1
								c-1.1,1.7-2.5,3.3-3.6,4.8c-1.3,1.4-2.4,2.8-3.6,4c-0.6,0.6-1.1,1.2-1.7,1.7s-1.1,1-1.5,1.4c-0.5,0.5-0.9,0.9-1.4,1.3
								c-0.4,0.4-0.9,0.7-1.2,1c-0.7,0.6-1.3,1.2-1.7,1.4c-0.4,0.3-0.6,0.5-0.6,0.5l60,75.2c0,0,0.5-0.4,1.4-1.1
								c0.9-0.7,2.2-1.8,3.8-3.2c0.8-0.7,1.7-1.5,2.7-2.4c1-0.9,2-1.8,3-2.8c1.1-1,2.2-2.1,3.4-3.3c1.2-1.2,2.4-2.5,3.6-3.8
								c10.2-10.5,21.9-26.4,30.5-44.1c4.2-8.8,7.7-18.1,10.3-26.9c0.3-1.1,0.6-2.2,0.9-3.3c0.3-1.1,0.6-2.1,0.9-3.3
								c0.5-2.1,1-4.3,1.4-6.3c0.3-1,0.4-2,0.6-3c0.2-1,0.4-2,0.5-3c0.2-1,0.3-1.9,0.5-2.9c0.2-1,0.3-1.9,0.4-2.8
								c0.2-1.8,0.4-3.6,0.6-5.2c0.1-0.4,0.1-0.8,0.2-1.2c0.1-0.4,0.1-0.8,0.1-1.2c0.1-0.8,0.1-1.6,0.2-2.3c0.2-3,0.4-5.6,0.5-7.7
								c0.1-4.3,0.2-6.7,0.2-6.7h-95.9V541.1z"/>
						</g>
						<g id="XMLID_187_">
							<path id="XMLID_188_" class="st5" d="M521.6,566.1c0,0-0.2,0.9-0.6,2.5c-0.2,0.8-0.4,1.7-0.6,2.8c-0.3,1.1-0.6,2.3-1,3.6
								c-0.2,0.6-0.4,1.3-0.6,2.1c-0.2,0.7-0.5,1.4-0.7,2.2s-0.5,1.5-0.8,2.3c-0.1,0.4-0.3,0.8-0.4,1.2c-0.2,0.4-0.3,0.8-0.5,1.2
								c-0.6,1.6-1.3,3.3-2,4.9c-0.7,1.7-1.5,3.3-2.2,5c-3.2,6.6-7.1,12.9-10.3,17.4c-0.8,1.1-1.5,2.2-2.2,3
								c-0.7,0.9-1.3,1.7-1.8,2.3c-0.5,0.6-0.9,1.1-1.2,1.4c-0.3,0.3-0.4,0.5-0.4,0.5l7.4,6.1c0,0,0.2-0.2,0.4-0.5
								c0.3-0.4,0.7-0.9,1.2-1.6s1.2-1.5,1.9-2.5c0.7-1,1.5-2.1,2.4-3.3c0.4-0.6,0.9-1.2,1.3-1.9c0.5-0.6,0.9-1.4,1.3-2.1
								c0.5-0.7,0.9-1.4,1.4-2.2s1-1.5,1.4-2.4c0.9-1.6,1.9-3.3,2.8-5c0.9-1.8,1.8-3.5,2.7-5.3c0.8-1.8,1.7-3.6,2.5-5.4
								c0.7-1.8,1.4-3.6,2.1-5.3c0.2-0.4,0.4-0.9,0.5-1.3c0.2-0.4,0.3-0.9,0.4-1.3c0.3-0.9,0.6-1.7,0.9-2.5s0.5-1.6,0.8-2.4
								c0.2-0.7,0.4-1.5,0.6-2.2c0.4-1.4,0.7-2.7,1.1-3.9c0.3-1.2,0.5-2.2,0.7-3c0.4-1.7,0.6-2.7,0.6-2.7L521.6,566.1z"/>
						</g>
						<path id="XMLID_186_" class="st5" d="M524,545.7l9.6,0.4c0,0,0,0.8-0.1,2c-0.1,1.2-0.2,2.8-0.3,4.3c-0.1,0.8-0.1,1.6-0.2,2.3
							c-0.1,0.7-0.2,1.4-0.3,2c-0.2,1.2-0.3,2-0.3,2l-9.5-1.3c0,0,0.1-0.7,0.2-1.8c0.1-0.5,0.2-1.2,0.2-1.9c0.1-0.7,0.1-1.4,0.2-2.1
							c0.1-1.4,0.2-2.9,0.3-4C524,546.4,524,545.7,524,545.7z"/>
						<path id="XMLID_182_" class="st5" d="M490.4,625.1l6.9,6.6c0,0-0.5,0.6-1.4,1.4c-0.2,0.2-0.4,0.4-0.6,0.7
							c-0.3,0.2-0.5,0.5-0.7,0.7c-0.5,0.5-1.1,1.1-1.7,1.6c-1.1,1.1-2.3,2.2-3.2,2.9c-0.9,0.8-1.5,1.3-1.5,1.3l-6.3-7.3
							c0,0,0.5-0.5,1.4-1.2c0.9-0.7,1.9-1.7,3-2.7c0.5-0.5,1.1-1,1.5-1.5c0.3-0.2,0.5-0.5,0.7-0.7c0.2-0.2,0.4-0.4,0.6-0.6
							C489.9,625.6,490.4,625.1,490.4,625.1z"/>
					</g>
				</g>
				<g id="XMLID_171_">
					<g id="XMLID_172_">
						<g id="XMLID_177_">
							<path id="XMLID_178_" class="st4" d="M451.4,602.4c0,0-0.2,0.2-0.6,0.5c-0.2,0.2-0.4,0.4-0.7,0.6c-0.3,0.2-0.6,0.5-1,0.8
								c-0.8,0.5-1.8,1.2-2.8,2c-0.6,0.4-1.2,0.7-1.8,1.1c-0.6,0.4-1.3,0.9-2,1.2c-0.7,0.4-1.4,0.9-2.2,1.3
								c-0.8,0.4-1.6,0.8-2.5,1.2c-0.4,0.2-0.9,0.4-1.3,0.6c-0.4,0.2-0.9,0.4-1.3,0.6s-0.9,0.4-1.3,0.6c-0.2,0.1-0.5,0.2-0.7,0.3
								c-0.2,0.1-0.5,0.2-0.7,0.3c-3.8,1.6-8,2.9-12.2,3.8l-1.6,0.4l-1.6,0.3c-1.1,0.2-2.1,0.4-3.2,0.5c-1.1,0.1-2.1,0.3-3.2,0.4
								c-1.1,0.1-2.1,0.2-3.2,0.2c-0.5,0.1-1,0.1-1.5,0.1s-1,0-1.5,0.1c-0.5,0-1,0.1-1.5,0.1s-1-0.1-1.4-0.1c-1-0.1-1.9-0.1-2.8-0.1
								c-0.9-0.1-1.8-0.2-2.6-0.2c-3.3-0.3-6-0.7-7.9-1.1c-0.5-0.1-0.9-0.2-1.3-0.2c-0.4-0.1-0.7-0.2-0.9-0.2
								c-0.5-0.1-0.7-0.2-0.7-0.2l-21.3,93.8c0,0,0.6,0.2,1.7,0.4c0.5,0.1,1.2,0.3,2.1,0.5c0.8,0.2,1.8,0.3,2.8,0.5
								c4.2,0.8,10.3,1.8,17.6,2.4c1.8,0.2,3.7,0.3,5.7,0.4c2,0.1,4,0.1,6.1,0.2c1.1,0,2.1,0.1,3.2,0.1c1.1,0,2.1-0.1,3.3-0.1
								c1.1-0.1,2.2-0.1,3.3-0.1c1.1-0.1,2.2-0.1,3.4-0.2c2.3-0.2,4.6-0.4,6.9-0.5c2.4-0.3,4.7-0.6,7.1-0.9c2.4-0.3,4.8-0.7,7.2-1.2
								c1.2-0.2,2.4-0.4,3.6-0.6l3.6-0.8c9.6-2.2,19-5.1,27.4-8.7c0.5-0.2,1.1-0.4,1.6-0.6c0.5-0.2,1-0.5,1.5-0.7c1-0.5,2-0.9,3-1.4
								c1-0.5,2-0.9,3-1.3c1-0.5,1.9-1,2.8-1.4c1.9-1,3.7-1.9,5.5-2.8c1.7-1,3.4-1.9,5-2.8s3.1-1.9,4.5-2.8c1.4-0.9,2.7-1.8,4-2.6
								c2.5-1.7,4.5-3.2,6.3-4.4c0.9-0.6,1.6-1.2,2.3-1.7c0.6-0.5,1.2-1,1.7-1.3c0.9-0.7,1.4-1.1,1.4-1.1L451.4,602.4z"/>
						</g>
						<g id="XMLID_175_">
							<path id="XMLID_176_" class="st5" d="M457.2,649.8c0,0-0.2,0.1-0.6,0.3s-1,0.5-1.7,0.9c-0.7,0.3-1.6,0.7-2.6,1.2
								c-0.5,0.2-1.1,0.5-1.6,0.7c-0.3,0.1-0.6,0.3-0.9,0.4c-0.3,0.1-0.6,0.3-1,0.4c-5.1,2.1-12.1,4.5-19.2,6.1
								c-7.2,1.7-14.5,2.6-20,2.8c-0.7,0.1-1.3,0.1-2,0.1s-1.2,0.1-1.8,0.1c-1.1,0.1-2.1,0.1-2.9,0.1c-0.8,0-1.4,0-1.9,0
								s-0.6,0-0.6,0l-0.2,9.6c0,0,0.3,0,0.7,0c0.5,0,1.1,0.1,2,0c0.9,0,1.9-0.1,3.2-0.1c0.6,0,1.2-0.1,1.9-0.1
								c0.7,0,1.4-0.1,2.1-0.1c5.9-0.3,13.8-1.3,21.6-3c7.7-1.8,15.3-4.3,20.8-6.6c0.3-0.2,0.7-0.3,1-0.4c0.3-0.2,0.6-0.3,1-0.4
								c0.6-0.3,1.2-0.5,1.8-0.8c1.1-0.5,2.1-0.9,2.8-1.3c0.8-0.4,1.4-0.7,1.8-0.9c0.4-0.2,0.6-0.3,0.6-0.3L457.2,649.8z"/>
						</g>
						<path id="XMLID_174_" class="st5" d="M474.8,638.9l5.7,7.8c0,0-0.6,0.5-1.6,1.2c-0.5,0.3-1.1,0.7-1.7,1.2
							c-0.6,0.4-1.2,0.9-1.9,1.3c-1.3,0.9-2.7,1.7-3.7,2.4c-1,0.6-1.7,1-1.7,1l-5-8.2c0,0,0.6-0.4,1.5-1c0.9-0.6,2.2-1.4,3.4-2.2
							c0.6-0.4,1.2-0.9,1.8-1.2c0.6-0.4,1.1-0.7,1.5-1.1C474.2,639.4,474.8,638.9,474.8,638.9z"/>
						<path id="XMLID_173_" class="st5" d="M391.7,662.3l-0.9,9.6c0,0-0.2,0-0.5-0.1c-0.3-0.1-0.9-0.1-1.4-0.1
							c-1.2-0.2-2.8-0.4-4.3-0.5c-0.8-0.1-1.5-0.2-2.3-0.3c-0.7-0.1-1.4-0.3-2-0.4c-1.2-0.2-2-0.4-2-0.4l1.8-9.5
							c0,0,0.7,0.1,1.8,0.3c0.5,0.1,1.2,0.2,1.9,0.3c0.7,0.1,1.4,0.2,2.1,0.3c1.4,0.2,2.9,0.4,4,0.5c0.5,0.1,1,0.1,1.3,0.1
							C391.6,662.2,391.7,662.3,391.7,662.3z"/>
					</g>
				</g>
				<g id="XMLID_163_">
					<g id="XMLID_164_">
						<g id="XMLID_169_">
							<path id="XMLID_170_" class="st4" d="M385.1,617.5c0,0-0.3-0.1-0.7-0.2s-1.2-0.2-2.1-0.5c-0.5-0.1-1-0.3-1.5-0.4
								c-0.3-0.1-0.6-0.2-0.9-0.2c-0.3-0.1-0.6-0.2-0.9-0.3c-0.6-0.2-1.3-0.4-2-0.7c-0.4-0.1-0.7-0.2-1.1-0.4
								c-0.4-0.1-0.7-0.3-1.1-0.4c-6.1-2.3-14-6.4-20.8-11.9c-3.4-2.7-6.6-5.8-9.4-8.9s-5-6.2-6.9-8.9c-1.8-2.8-3.2-5.1-4.1-6.8
								c-0.9-1.7-1.4-2.7-1.4-2.7L245.5,617c0,0,1.1,2.2,3,6c2,3.8,5,9.1,9.1,15.2c4.1,6,9.2,12.9,15.4,19.8
								c6.1,6.8,13.3,13.6,20.9,19.7c7.6,6.1,15.8,11.6,23.8,16c2,1.2,4,2.1,6,3.2c1,0.5,2,1,2.9,1.5s1.9,0.9,2.9,1.3
								c1.9,0.9,3.8,1.7,5.6,2.5c1.8,0.7,3.6,1.4,5.3,2.1c0.9,0.3,1.7,0.7,2.5,1c0.9,0.3,1.7,0.6,2.5,0.9c1.6,0.5,3.1,1.1,4.5,1.5
								c0.7,0.3,1.4,0.4,2.1,0.6c0.7,0.2,1.3,0.4,1.9,0.5c1.2,0.4,2.4,0.7,3.4,1c2.1,0.6,3.7,1,4.8,1.2c1.1,0.3,1.7,0.4,1.7,0.4
								L385.1,617.5z"/>
						</g>
						<g id="XMLID_167_">
							<path id="XMLID_168_" class="st5" d="M351.8,651.7c0,0-0.2-0.1-0.6-0.3c-0.4-0.2-1-0.4-1.7-0.8c-0.7-0.4-1.6-0.8-2.6-1.3
								c-1-0.5-2.1-1.1-3.3-1.8c-4.9-2.6-11-6.7-16.8-11.3c-1.5-1.1-2.8-2.4-4.2-3.5c-0.7-0.6-1.4-1.2-2-1.8s-1.3-1.2-1.9-1.8
								s-1.2-1.2-1.8-1.8s-1.1-1.2-1.7-1.8c-0.5-0.6-1.1-1.1-1.6-1.7s-1-1.1-1.4-1.6c-0.9-1-1.7-2-2.5-2.8c-0.4-0.4-0.7-0.8-1-1.2
								c-0.3-0.4-0.6-0.7-0.8-1.1c-1-1.3-1.5-2-1.5-2l-7.6,5.9c0,0,0.6,0.8,1.7,2.1c0.3,0.3,0.6,0.7,0.9,1.1
								c0.3,0.4,0.7,0.8,1.1,1.3c0.8,0.9,1.7,1.9,2.7,3c0.5,0.6,1,1.1,1.5,1.7s1.1,1.2,1.7,1.8c0.6,0.6,1.2,1.3,1.8,1.9
								c0.6,0.6,1.3,1.2,2,1.9c0.7,0.6,1.3,1.3,2,2c0.7,0.6,1.4,1.3,2.2,1.9c1.5,1.3,2.9,2.6,4.5,3.8c6.2,5,12.9,9.3,18.1,12.1
								c1.3,0.7,2.5,1.3,3.6,1.9c1.1,0.5,2,1,2.8,1.4c0.7,0.4,1.4,0.6,1.8,0.9s0.6,0.3,0.6,0.3L351.8,651.7z"/>
						</g>
						<path id="XMLID_166_" class="st5" d="M371.2,658.6l-2.5,9.3c0,0-0.7-0.2-1.9-0.5c-0.6-0.2-1.2-0.4-2-0.5
							c-0.4-0.1-0.7-0.2-1.1-0.3c-0.4-0.1-0.7-0.3-1.1-0.4c-1.5-0.5-3-1-4.1-1.4c-0.6-0.2-1-0.3-1.3-0.5c-0.3-0.1-0.5-0.2-0.5-0.2
							l3.4-9c0,0,0.2,0.1,0.5,0.2c0.3,0.1,0.7,0.3,1.2,0.4c1.1,0.4,2.5,0.8,3.8,1.3c0.4,0.1,0.7,0.3,1,0.3c0.4,0.1,0.7,0.2,1,0.3
							c0.6,0.2,1.3,0.4,1.8,0.5C370.5,658.4,371.2,658.6,371.2,658.6z"/>
						<path id="XMLID_165_" class="st5" d="M301.2,608.2l-8,5.3c0,0-0.4-0.6-1.1-1.7c-0.3-0.5-0.7-1.1-1.1-1.7
							c-0.2-0.3-0.4-0.6-0.6-1c-0.2-0.3-0.4-0.7-0.6-1c-0.8-1.4-1.6-2.7-2.2-3.8c-0.3-0.5-0.5-1-0.7-1.3c-0.2-0.3-0.3-0.5-0.3-0.5
							l8.5-4.5c0,0,0.1,0.2,0.2,0.4c0.2,0.3,0.4,0.7,0.6,1.2c0.5,1,1.3,2.2,2,3.5c0.2,0.3,0.4,0.6,0.5,1c0.2,0.3,0.4,0.6,0.6,0.9
							c0.4,0.6,0.7,1.1,1,1.6C300.8,607.6,301.2,608.2,301.2,608.2z"/>
					</g>
				</g>
				<g id="XMLID_155_">
					<g id="XMLID_156_">
						<g id="XMLID_161_">
							<path id="XMLID_162_" class="st4" d="M332,575.1c0,0-0.1-0.1-0.1-0.2s-0.1-0.3-0.2-0.5c-0.2-0.5-0.5-1.2-0.9-2
								c-0.7-1.8-1.8-4.3-2.8-7.4c-0.2-0.4-0.3-0.8-0.4-1.2c-0.1-0.4-0.2-0.9-0.4-1.2c-0.2-0.9-0.5-1.7-0.7-2.6
								c-0.2-0.9-0.4-1.9-0.6-2.8c-0.2-1-0.3-2-0.5-3c-0.6-4.1-1.1-8.4-1.1-12.9c0.1-4.4,0.4-8.8,1.1-12.9c0.2-1,0.4-2,0.5-3
								c0.2-1,0.5-1.9,0.6-2.8c0.2-0.9,0.5-1.8,0.7-2.6c0.1-0.4,0.2-0.9,0.4-1.2c0.1-0.4,0.2-0.8,0.4-1.2c1-3.1,2-5.7,2.8-7.4
								c0.4-0.9,0.7-1.6,0.9-2c0.1-0.2,0.2-0.4,0.2-0.5s0.1-0.2,0.1-0.2l-86.6-41.8c0,0-1,2.2-2.8,6.1c-1.7,4-4,9.6-6.3,16.6
								c-0.3,0.9-0.6,1.8-0.8,2.7c-0.3,0.9-0.5,1.9-0.8,2.8c-0.5,1.9-1.1,3.9-1.5,5.9c-0.5,2-1,4.2-1.4,6.3
								c-0.4,2.2-0.8,4.4-1.2,6.7c-1.5,9.1-2.4,18.8-2.4,28.6c0.1,9.7,0.9,19.5,2.4,28.6c0.4,2.2,0.8,4.5,1.2,6.7
								c0.5,2.1,1,4.3,1.4,6.3c0.4,2.1,1,4,1.5,5.9c0.3,1,0.5,1.9,0.8,2.8c0.3,0.9,0.5,1.8,0.8,2.7c2.2,7,4.5,12.7,6.3,16.6
								c1.8,3.9,2.8,6.1,2.8,6.1L332,575.1z"/>
						</g>
						<g id="XMLID_159_">
							<path id="XMLID_160_" class="st5" d="M284.5,570.3c0,0-0.2-0.9-0.6-2.5c-0.1-0.4-0.2-0.8-0.3-1.3s-0.2-1-0.3-1.6
								c-0.2-1.1-0.4-2.4-0.6-3.7c-0.1-0.7-0.3-1.4-0.4-2.1c-0.1-0.7-0.2-1.5-0.3-2.3c-0.2-1.6-0.5-3.2-0.5-4.9
								c-0.1-0.9-0.1-1.7-0.2-2.6c-0.1-0.9-0.2-1.8-0.2-2.7c-0.1-1.8-0.1-3.6-0.2-5.5c0.1-1.8,0.1-3.7,0.2-5.5
								c0-0.9,0.1-1.8,0.2-2.7c0.1-0.9,0.2-1.8,0.2-2.6c0.1-1.7,0.4-3.4,0.5-4.9c0.2-1.6,0.4-3,0.6-4.4c0.3-1.3,0.5-2.6,0.6-3.7
								c0.1-0.5,0.2-1.1,0.3-1.6c0.1-0.5,0.2-0.9,0.3-1.3c0.4-1.6,0.6-2.5,0.6-2.5l-9.4-2.3c0,0-0.2,1-0.6,2.7
								c-0.1,0.4-0.2,0.9-0.3,1.4c-0.1,0.5-0.3,1.1-0.3,1.7c-0.2,1.2-0.4,2.5-0.7,4c-0.3,1.4-0.5,3-0.7,4.8
								c-0.2,1.7-0.5,3.5-0.6,5.3c-0.1,0.9-0.2,1.9-0.2,2.8s-0.2,1.9-0.2,2.9c-0.1,1.9-0.1,4-0.2,5.9c0.1,2,0.1,4,0.2,5.9
								c0,1,0.1,1.9,0.2,2.9s0.2,1.9,0.2,2.8c0.1,1.9,0.4,3.6,0.6,5.3c0.1,0.9,0.2,1.7,0.3,2.5c0.1,0.8,0.3,1.6,0.4,2.3
								c0.3,1.4,0.5,2.8,0.7,4c0.1,0.6,0.2,1.1,0.3,1.7s0.2,1,0.3,1.4c0.4,1.7,0.6,2.7,0.6,2.7L284.5,570.3z"/>
						</g>
						<path id="XMLID_158_" class="st5" d="M291.2,589.8l-8.8,3.8c0,0-0.1-0.2-0.2-0.5c-0.2-0.3-0.4-0.7-0.6-1.3
							c-0.4-1.1-1-2.6-1.6-4.1c-0.6-1.4-1.1-3-1.5-4.1c-0.4-1.1-0.6-1.9-0.6-1.9l9.1-3c0,0,0.2,0.7,0.6,1.8c0.4,1,0.8,2.5,1.4,3.8
							c0.5,1.4,1.1,2.7,1.5,3.7c0.2,0.5,0.4,0.9,0.5,1.2C291.1,589.6,291.2,589.8,291.2,589.8z"/>
						<path id="XMLID_157_" class="st5" d="M287,503.6l-9.1-3c0,0,0.3-0.7,0.6-1.9s0.9-2.6,1.4-4.1s1.2-2.9,1.6-4.1
							c0.2-0.5,0.4-1,0.6-1.3c0.2-0.3,0.2-0.5,0.2-0.5l8.8,3.8c0,0-0.1,0.2-0.2,0.5c-0.1,0.3-0.3,0.7-0.5,1.2c-0.4,1-1,2.4-1.5,3.7
							c-0.6,1.3-1,2.8-1.3,3.8C287.2,502.9,287,503.6,287,503.6z"/>
					</g>
				</g>
				<g id="XMLID_147_">
					<g id="XMLID_148_">
						<g id="XMLID_153_">
							<path id="XMLID_154_" class="st4" d="M332,507.2c0,0,0.5-1,1.4-2.7c0.9-1.7,2.3-4.1,4.1-6.8c1.9-2.7,4.2-5.8,6.9-8.9
								c2.8-3,6-6.1,9.4-8.9c6.8-5.6,14.7-9.6,20.8-11.9c0.4-0.2,0.7-0.3,1.1-0.4c0.4-0.1,0.7-0.3,1.1-0.4c0.7-0.3,1.4-0.5,2-0.7
								c0.3-0.1,0.6-0.2,0.9-0.3c0.3-0.1,0.6-0.2,0.9-0.2c0.5-0.2,1.1-0.3,1.5-0.4c0.9-0.3,1.7-0.4,2.1-0.5s0.7-0.2,0.7-0.2
								L363.8,371c0,0-0.6,0.2-1.7,0.4c-1.1,0.3-2.8,0.6-4.8,1.2c-1,0.3-2.2,0.6-3.4,1c-0.6,0.2-1.3,0.4-1.9,0.5
								c-0.7,0.2-1.4,0.4-2.1,0.6c-1.4,0.5-2.9,1-4.5,1.5c-0.8,0.3-1.6,0.5-2.5,0.9c-0.8,0.3-1.7,0.6-2.5,1
								c-1.7,0.7-3.5,1.4-5.3,2.1c-1.8,0.8-3.7,1.7-5.6,2.5c-1,0.4-1.9,0.9-2.9,1.3s-1.9,1-2.9,1.5c-2,1-4,2-6,3.2
								c-8,4.4-16.2,9.9-23.8,16c-7.6,6.1-14.7,12.9-20.9,19.7c-6.1,6.8-11.3,13.7-15.4,19.8c-4.1,6.1-7.1,11.4-9.1,15.2
								c-1.9,3.8-3,6-3,6L332,507.2z"/>
						</g>
						<g id="XMLID_151_">
							<path id="XMLID_152_" class="st5" d="M306.2,467c0,0,0.6-0.7,1.5-2c1-1.3,2.5-3,4.3-5.1c0.4-0.5,1-1.1,1.4-1.6
								c0.5-0.5,1.1-1.1,1.6-1.7c0.5-0.6,1.1-1.2,1.7-1.8c0.6-0.6,1.2-1.2,1.8-1.8c0.6-0.6,1.3-1.2,1.9-1.8c0.6-0.6,1.3-1.2,2-1.8
								c1.4-1.2,2.7-2.4,4.2-3.5c5.7-4.6,11.9-8.7,16.8-11.3c1.2-0.7,2.4-1.2,3.3-1.8c1-0.5,1.9-1,2.6-1.3c0.7-0.4,1.3-0.6,1.7-0.8
								c0.4-0.2,0.6-0.3,0.6-0.3l-4.1-8.7c0,0-0.2,0.1-0.6,0.3c-0.4,0.2-1.1,0.4-1.8,0.9c-0.7,0.4-1.7,0.9-2.8,1.4
								c-1.1,0.5-2.3,1.1-3.6,1.9c-5.2,2.8-11.9,7.2-18.1,12.1c-1.6,1.2-3,2.5-4.5,3.8c-0.7,0.6-1.5,1.3-2.2,1.9
								c-0.7,0.6-1.4,1.3-2,2c-0.7,0.6-1.3,1.3-2,1.9c-0.6,0.6-1.2,1.3-1.8,1.9c-0.6,0.6-1.2,1.2-1.7,1.8c-0.5,0.6-1.1,1.1-1.5,1.7
								c-1.9,2.2-3.6,4.1-4.6,5.5c-1.1,1.4-1.7,2.1-1.7,2.1L306.2,467z"/>
						</g>
						<path id="XMLID_150_" class="st5" d="M295.1,484.4l-8.5-4.5c0,0,0.1-0.2,0.3-0.5c0.2-0.3,0.4-0.7,0.7-1.3
							c0.6-1,1.4-2.4,2.2-3.8c0.7-1.4,1.7-2.7,2.3-3.7c0.6-1,1.1-1.7,1.1-1.7l8,5.3c0,0-0.4,0.6-1,1.6c-0.6,1-1.4,2.1-2.1,3.4
							c-0.7,1.3-1.4,2.6-2,3.5c-0.3,0.5-0.5,0.9-0.6,1.2C295.2,484.2,295.1,484.4,295.1,484.4z"/>
						<path id="XMLID_149_" class="st5" d="M359.8,427.3l-3.4-9c0,0,0.2-0.1,0.5-0.2c0.3-0.2,0.8-0.3,1.3-0.5
							c1.1-0.4,2.6-0.9,4.1-1.4c0.4-0.1,0.7-0.3,1.1-0.4c0.4-0.1,0.7-0.2,1.1-0.3c0.7-0.2,1.4-0.4,2-0.5c1.1-0.3,1.9-0.5,1.9-0.5
							l2.5,9.3c0,0-0.7,0.2-1.8,0.5c-0.5,0.2-1.1,0.3-1.8,0.5c-0.3,0.1-0.7,0.2-1,0.3c-0.3,0.1-0.7,0.2-1,0.4
							c-1.4,0.5-2.8,1-3.8,1.3c-0.5,0.2-1,0.3-1.2,0.4C360,427.3,359.8,427.3,359.8,427.3z"/>
					</g>
				</g>
				<g id="XMLID_139_">
					<g id="XMLID_140_">
						<g id="XMLID_145_">
							<path id="XMLID_146_" class="st4" d="M385.1,464.8c0,0,0.3-0.1,0.7-0.2c0.3-0.1,0.5-0.1,0.9-0.2c0.4-0.1,0.8-0.1,1.3-0.2
								c1.9-0.4,4.6-0.8,7.9-1.1c0.8-0.1,1.7-0.1,2.6-0.2c0.9,0,1.8-0.1,2.8-0.1c0.5,0,1-0.1,1.4-0.1c0.5,0,1,0.1,1.5,0.1
								c0.5,0,1,0,1.5,0.1c0.5,0,1,0,1.5,0.1c1,0.1,2.1,0.2,3.2,0.2c1.1,0.1,2.1,0.3,3.2,0.4c1.1,0.1,2.1,0.4,3.2,0.5l1.6,0.3
								l1.6,0.4c4.3,1,8.4,2.2,12.2,3.8c0.2,0.1,0.5,0.2,0.7,0.3c0.2,0.1,0.5,0.2,0.7,0.3c0.5,0.2,0.9,0.4,1.3,0.6s0.9,0.4,1.3,0.6
								s0.9,0.4,1.3,0.6c0.9,0.4,1.7,0.8,2.5,1.2c0.7,0.4,1.5,0.9,2.2,1.3c0.7,0.4,1.4,0.9,2,1.2c0.6,0.4,1.2,0.8,1.8,1.1
								c1.1,0.7,2,1.4,2.8,2c0.4,0.3,0.7,0.5,1,0.8c0.3,0.2,0.5,0.4,0.7,0.6c0.4,0.3,0.6,0.5,0.6,0.5l60-75.2c0,0-0.5-0.4-1.4-1.1
								c-0.4-0.4-1-0.8-1.7-1.3c-0.6-0.5-1.4-1.1-2.3-1.7c-1.8-1.2-3.8-2.8-6.3-4.4c-1.2-0.8-2.6-1.7-4-2.6
								c-1.4-0.9-2.9-1.9-4.5-2.8c-1.6-0.9-3.3-1.9-5-2.8c-1.7-1-3.6-1.9-5.5-2.8c-1-0.5-1.9-1-2.8-1.4c-1-0.4-2-0.9-3-1.3
								c-1-0.4-2-0.9-3-1.4c-0.5-0.2-1-0.5-1.5-0.7s-1.1-0.4-1.6-0.6c-8.5-3.5-17.9-6.5-27.4-8.7l-3.6-0.8c-1.2-0.2-2.4-0.4-3.6-0.6
								c-2.4-0.4-4.8-0.9-7.2-1.2c-2.4-0.3-4.8-0.6-7.1-0.9c-2.4-0.2-4.6-0.4-6.9-0.5c-1.1-0.1-2.3-0.1-3.4-0.2
								c-1.1-0.1-2.2-0.1-3.3-0.1c-1.1,0-2.2-0.1-3.3-0.1s-2.1,0.1-3.2,0.1c-2.1,0.1-4.1,0.1-6.1,0.2c-2,0.2-3.8,0.3-5.7,0.4
								c-7.3,0.6-13.4,1.6-17.6,2.4c-1.1,0.2-2,0.4-2.8,0.5c-0.8,0.2-1.5,0.3-2.1,0.5c-1.1,0.3-1.7,0.4-1.7,0.4L385.1,464.8z"/>
						</g>
						<g id="XMLID_143_">
							<path id="XMLID_144_" class="st5" d="M400.4,419.5c0,0,0.2,0,0.6,0s1.1-0.1,1.9-0.1c0.8,0,1.8,0.1,2.9,0.1
								c0.5,0,1.2,0.1,1.8,0.1c0.6,0,1.3,0,2,0.1c5.5,0.3,12.8,1.2,20,2.8c7.2,1.6,14.2,4,19.2,6.1c0.6,0.3,1.3,0.5,1.8,0.7
								c0.6,0.3,1.1,0.5,1.6,0.7c1,0.5,1.9,0.9,2.6,1.2c0.7,0.3,1.3,0.6,1.7,0.9s0.6,0.3,0.6,0.3l4.3-8.6c0,0-0.2-0.1-0.6-0.3
								s-1-0.5-1.8-0.9c-0.8-0.4-1.8-0.8-2.8-1.3c-0.5-0.3-1.1-0.5-1.8-0.8c-0.6-0.3-1.3-0.5-2-0.8c-5.5-2.3-13-4.8-20.8-6.6
								s-15.7-2.7-21.6-3c-0.7-0.1-1.4-0.1-2.1-0.1c-0.7,0-1.3-0.1-1.9-0.1c-1.2-0.1-2.2-0.1-3.2-0.1c-0.9,0-1.5,0-2,0.1
								c-0.5,0-0.7,0-0.7,0L400.4,419.5z"/>
						</g>
						<path id="XMLID_142_" class="st5" d="M380,421.7l-1.8-9.5c0,0,0.8-0.2,2-0.4c0.6-0.1,1.3-0.2,2-0.4c0.7-0.2,1.5-0.2,2.3-0.3
							c1.5-0.2,3.2-0.4,4.3-0.5c0.6-0.1,1.1-0.1,1.4-0.1c0.3,0,0.5-0.1,0.5-0.1l0.9,9.6c0,0-0.2,0-0.5,0.1c-0.3,0.1-0.8,0.1-1.3,0.1
							c-1.1,0.2-2.6,0.3-4,0.5c-0.7,0.1-1.4,0.2-2.1,0.3c-0.7,0.1-1.3,0.2-1.9,0.3C380.7,421.5,380,421.7,380,421.7z"/>
						<path id="XMLID_141_" class="st5" d="M464.8,436.7l4.9-8.2c0,0,0.7,0.4,1.7,1c1,0.6,2.4,1.5,3.7,2.4c0.7,0.4,1.3,0.9,1.9,1.3
							c0.6,0.4,1.2,0.9,1.7,1.2c1,0.7,1.6,1.2,1.6,1.2l-5.7,7.8c0,0-0.6-0.4-1.5-1.1c-0.4-0.3-1-0.7-1.5-1.1
							c-0.5-0.4-1.2-0.9-1.8-1.2c-1.2-0.8-2.5-1.6-3.4-2.2C465.5,437.1,464.8,436.7,464.8,436.7z"/>
					</g>
				</g>
				<g id="XMLID_131_">
					<g id="XMLID_132_">
						<g id="XMLID_137_">
							<path id="XMLID_138_" class="st4" d="M451.4,479.9c0,0,0.2,0.2,0.6,0.5c0.4,0.3,1,0.9,1.7,1.4c0.4,0.3,0.7,0.6,1.2,1
								c0.5,0.4,0.9,0.9,1.4,1.3c0.5,0.5,1,1,1.5,1.4c0.5,0.5,1.1,1.1,1.7,1.7c1.2,1.2,2.3,2.6,3.6,4c1.1,1.5,2.5,3,3.6,4.8
								c2.4,3.4,4.6,7.2,6.6,11.1c3.8,7.9,6.1,16.4,6.9,22.9c0.1,0.8,0.2,1.6,0.3,2.4c0,0.2,0.1,0.4,0.1,0.5s0,0.4,0.1,0.5
								c0,0.4,0.1,0.7,0.1,1c0.1,1.3,0.2,2.5,0.2,3.5c0.1,1.9,0.1,3,0.1,3h96.2c0,0-0.1-2.5-0.2-6.7c0-2.1-0.3-4.7-0.5-7.7
								c-0.1-0.7-0.1-1.5-0.2-2.3c-0.1-0.4-0.1-0.8-0.1-1.2c-0.1-0.4-0.1-0.8-0.2-1.2c-0.2-1.7-0.4-3.4-0.6-5.2
								c-0.1-0.9-0.2-1.8-0.4-2.8s-0.3-1.9-0.5-2.9c-0.2-1-0.4-2-0.5-3c-0.2-1-0.4-2-0.6-3c-0.5-2-1-4.2-1.4-6.3
								c-0.2-1.1-0.5-2.1-0.9-3.3c-0.3-1.1-0.6-2.2-0.9-3.3c-2.6-8.8-6-18.1-10.3-26.9c-8.5-17.7-20.3-33.6-30.5-44.1
								c-1.3-1.3-2.5-2.6-3.6-3.8c-1.2-1.2-2.4-2.2-3.4-3.3s-2.1-2-3-2.8c-1-0.9-1.9-1.6-2.7-2.4c-1.6-1.4-2.9-2.5-3.8-3.2
								c-0.9-0.7-1.4-1.1-1.4-1.1L451.4,479.9z"/>
						</g>
						<g id="XMLID_135_">
							<path id="XMLID_136_" class="st5" d="M496.3,463.6c0,0,0.2,0.2,0.4,0.5c0.3,0.3,0.6,0.9,1.2,1.4c0.5,0.6,1.1,1.4,1.8,2.3
								c0.7,0.9,1.4,1.9,2.2,3c3.2,4.5,7.1,10.7,10.3,17.4c0.7,1.7,1.5,3.4,2.2,5c0.7,1.7,1.3,3.3,2,4.9c0.2,0.4,0.3,0.8,0.5,1.2
								c0.2,0.4,0.3,0.8,0.4,1.2c0.3,0.8,0.5,1.6,0.8,2.3s0.5,1.5,0.7,2.2s0.4,1.4,0.6,2.1c0.4,1.3,0.7,2.6,1,3.6
								c0.3,1.1,0.5,2,0.6,2.8c0.4,1.6,0.6,2.5,0.6,2.5l9.4-2c0,0-0.2-1-0.6-2.7c-0.2-0.9-0.4-1.9-0.7-3c-0.3-1.2-0.7-2.5-1.1-3.9
								c-0.2-0.7-0.4-1.4-0.6-2.2c-0.2-0.7-0.5-1.6-0.8-2.4s-0.5-1.7-0.9-2.5c-0.2-0.4-0.3-0.9-0.4-1.3c-0.2-0.4-0.3-0.9-0.5-1.3
								c-0.7-1.7-1.3-3.5-2.1-5.3c-0.8-1.8-1.6-3.6-2.5-5.4c-3.4-7.2-7.6-13.9-11.1-18.8c-0.9-1.2-1.6-2.4-2.4-3.3s-1.4-1.8-1.9-2.5
								c-0.5-0.7-1-1.2-1.2-1.6c-0.3-0.4-0.4-0.5-0.4-0.5L496.3,463.6z"/>
						</g>
						<path id="XMLID_134_" class="st5" d="M481.8,449l6.3-7.3c0,0,0.6,0.5,1.5,1.3c0.4,0.4,1,0.8,1.5,1.3s1.1,1.1,1.7,1.6
							c0.6,0.5,1.1,1.1,1.7,1.6c0.3,0.3,0.5,0.5,0.7,0.7c0.3,0.2,0.5,0.5,0.6,0.7c0.8,0.9,1.4,1.4,1.4,1.4l-6.9,6.7
							c0,0-0.5-0.5-1.3-1.3c-0.2-0.2-0.4-0.4-0.6-0.6c-0.2-0.2-0.5-0.4-0.7-0.7c-0.5-0.5-1-1-1.5-1.5c-0.5-0.5-1.1-1-1.5-1.5
							c-0.5-0.5-1-0.9-1.4-1.2C482.3,449.5,481.8,449,481.8,449z"/>
						<path id="XMLID_133_" class="st5" d="M523,524.8l9.5-1.3c0,0,0.1,0.8,0.3,2c0.1,0.6,0.2,1.3,0.3,2c0.1,0.7,0.1,1.6,0.2,2.3
							c0.1,1.6,0.2,3.2,0.3,4.3c0.1,0.6,0.1,1.1,0.1,1.4c0,0.3,0,0.5,0,0.5l-9.6,0.4c0,0,0-0.2,0-0.5s0-0.8-0.1-1.3
							c-0.1-1.1-0.2-2.6-0.3-4c-0.1-0.7-0.1-1.4-0.2-2.1c-0.1-0.7-0.2-1.3-0.2-1.9C523.1,525.5,523,524.8,523,524.8z"/>
					</g>
				</g>
			</g>
		</g>
	</g>
</g>
<g id="Layer_1_1_">
	<circle id="XMLID_60_" class="st7" cx="330.9" cy="500.8" r="5.8"/>
	<circle id="XMLID_61_" class="st7" cx="330.9" cy="521.1" r="5.8"/>
	<rect id="XMLID_62_" x="327.6" y="533.1" class="st3" width="3.2" height="12.6"/>
	<circle id="XMLID_86_" class="st7" cx="330.9" cy="476.7" r="5.8"/>
	<line id="XMLID_66_" class="st8" x1="407.5" y1="457.7" x2="482" y2="621.9"/>
	<line id="XMLID_67_" class="st8" x1="480.6" y1="620" x2="501.4" y2="618.8"/>
	<rect id="XMLID_68_" x="327.6" y="542" class="st3" width="119.6" height="4.3"/>
	<polygon id="XMLID_69_" class="st9" points="309.4,595 384.4,456.7 408.8,456.7 337.9,595.2 	"/>
</g>
</svg>
