<?xml version="1.0" encoding="utf-8"?>
<!-- Generator: Adobe Illustrator 19.0.0, SVG Export Plug-In . SVG Version: 6.00 Build 0)  -->
<svg version="1.1" xmlns="http://www.w3.org/2000/svg" xmlns:xlink="http://www.w3.org/1999/xlink" x="0px" y="0px"
	 viewBox="0 0 1280 800" style="enable-background:new 0 0 1280 800;" xml:space="preserve">
<style type="text/css">
	.st0{opacity:0.62;fill:#56B9C1;}
	.st1{fill:#9B3D2D;}
	.st2{fill:#F9C600;}
	.st3{fill:#984853;}
	.st4{clip-path:url(#XMLID_111_);}
	.st5{clip-path:url(#XMLID_112_);fill:none;}
	.st6{clip-path:url(#XMLID_112_);fill:#003752;}
	.st7{clip-path:url(#XMLID_112_);fill:#1B4964;}
	.st8{opacity:0.46;}
	.st9{fill:#333333;}
	.st10{fill:#35210B;}
	.st11{fill:#8C6239;}
	.st12{fill:#603813;}
	.st13{fill:#003752;}
	.st14{fill:#1B4964;}
	.st15{fill:#FFFFFF;}
	.st16{fill:none;}
	.st17{opacity:0.39;clip-path:url(#XMLID_113_);}
	.st18{clip-path:url(#XMLID_113_);}
	.st19{fill:#928080;}
	.st20{fill:none;stroke:#C1272D;stroke-miterlimit:10;}
	.st21{fill:#C1272D;}
	.st22{opacity:0.63;fill:#B17B24;}
	.st23{font-family:'Georgia';}
	.st24{font-size:72px;}
	.st25{font-size:36px;}
	.st26{font-size:48px;}
</style>
<g id="Layer_1">
	<rect id="XMLID_1_" class="st0" width="1280" height="800"/>
</g>
<g id="person">
	<path id="XMLID_35_" class="st1" d="M267.3,543.1L228.7,800h166.4c0,0-59.9-110-61.5-252.1C333.2,504.8,267.3,543.1,267.3,543.1z"
		/>
	<circle id="XMLID_2_" class="st2" cx="337" cy="449" r="120"/>
	<circle id="XMLID_3_" cx="422.5" cy="479.5" r="10.5"/>
	<path id="XMLID_51_" class="st3" d="M433,521l-51-16.6l18.1,46.6C400.1,551.1,419.5,539.7,433,521z"/>
</g>
<g id="sweater">
</g>
<g id="chair">
	<g id="XMLID_109_">
		<defs>
			<rect id="XMLID_108_" width="1280" height="800"/>
		</defs>
		<clipPath id="XMLID_111_">
			<use xlink:href="#XMLID_108_"  style="overflow:visible;"/>
		</clipPath>
		<g id="XMLID_106_" class="st4">
			<defs>
				<rect id="XMLID_50_" width="1280" height="800"/>
			</defs>
			<clipPath id="XMLID_112_">
				<use xlink:href="#XMLID_50_"  style="overflow:visible;"/>
			</clipPath>
			<rect id="XMLID_105_" class="st5" width="1280" height="800"/>
			<path id="XMLID_103_" class="st6" d="M244.7,582.2c0,0-109.9,243.5-58.9,245.7c20.3,0.9,174.5,7.7,174.5,7.7
				s-55.6-107.1-51.1-245.8C310.6,547.7,244.7,582.2,244.7,582.2z"/>
			<path id="XMLID_77_" class="st7" d="M255,568.2c0,0-66.8,190.8-75.4,241.1c-2.3,13.5,173.5,19.4,173.5,19.4
				S304.9,718.1,318.8,580C323,538.2,255,568.2,255,568.2z"/>
			<polyline id="XMLID_104_" class="st6" points="242.7,601.1 260.5,800 190,800 190.2,766.7 242.7,601.1 			"/>
		</g>
		<rect id="XMLID_75_" x="137.6" y="461.3" class="st4" width="52" height="338.7"/>
	</g>
</g>
<g id="hair">
	<g id="XMLID_121_" class="st8">
		<circle id="XMLID_138_" class="st9" cx="194.9" cy="438.3" r="62.2"/>
		<circle id="XMLID_137_" class="st9" cx="152.4" cy="489.8" r="59.3"/>
		<circle id="XMLID_136_" class="st9" cx="257.5" cy="530.4" r="55.7"/>
		<circle id="XMLID_135_" class="st9" cx="185.2" cy="530" r="50.6"/>
		<circle id="XMLID_134_" class="st9" cx="295.3" cy="437.6" r="51.8"/>
		<circle id="XMLID_133_" class="st9" cx="310.4" cy="355.8" r="53.2"/>
		<circle id="XMLID_132_" class="st9" cx="231.9" cy="360.8" r="46.8"/>
		<ellipse id="XMLID_131_" class="st9" cx="263.6" cy="484.8" rx="31.7" ry="30.8"/>
		<circle id="XMLID_130_" class="st9" cx="257.1" cy="415.7" r="31.5"/>
		<circle id="XMLID_129_" class="st9" cx="270.2" cy="311.1" r="44.7"/>
		<circle id="XMLID_128_" class="st9" cx="347.9" cy="301.7" r="52.5"/>
		<circle id="XMLID_127_" class="st9" cx="311.9" cy="277.9" r="33.2"/>
		<circle id="XMLID_126_" class="st9" cx="407.8" cy="370.2" r="44.2"/>
		<circle id="XMLID_125_" class="st9" cx="414.5" cy="347.5" r="37.5"/>
		<circle id="XMLID_124_" class="st9" cx="407.1" cy="300.1" r="20.9"/>
		<circle id="XMLID_123_" class="st9" cx="454.3" cy="377.4" r="36.8"/>
		<circle id="XMLID_122_" class="st9" cx="347.7" cy="377.6" r="47.4"/>
	</g>
	<g id="XMLID_52_" class="st8">
		<circle id="XMLID_70_" class="st9" cx="211.9" cy="461.3" r="62.2"/>
		<circle id="XMLID_69_" class="st9" cx="169.4" cy="512.8" r="59.3"/>
		<circle id="XMLID_68_" class="st9" cx="274.5" cy="553.4" r="55.7"/>
		<circle id="XMLID_67_" class="st9" cx="202.2" cy="553" r="50.6"/>
		<circle id="XMLID_66_" class="st9" cx="312.3" cy="460.6" r="51.8"/>
		<circle id="XMLID_65_" class="st9" cx="327.4" cy="378.8" r="53.2"/>
		<circle id="XMLID_64_" class="st9" cx="248.9" cy="383.8" r="46.8"/>
		<ellipse id="XMLID_63_" class="st9" cx="280.6" cy="507.8" rx="31.7" ry="30.8"/>
		<circle id="XMLID_62_" class="st9" cx="274.1" cy="438.7" r="31.5"/>
		<circle id="XMLID_61_" class="st9" cx="287.2" cy="334.1" r="44.7"/>
		<circle id="XMLID_60_" class="st9" cx="364.9" cy="324.7" r="52.5"/>
		<circle id="XMLID_59_" class="st9" cx="328.9" cy="300.9" r="33.2"/>
		<circle id="XMLID_58_" class="st9" cx="424.8" cy="393.2" r="44.2"/>
		<circle id="XMLID_57_" class="st9" cx="431.5" cy="370.5" r="37.5"/>
		<circle id="XMLID_56_" class="st9" cx="424.1" cy="323.1" r="20.9"/>
		<circle id="XMLID_55_" class="st9" cx="471.3" cy="400.4" r="36.8"/>
		<circle id="XMLID_54_" class="st9" cx="364.7" cy="400.6" r="47.4"/>
	</g>
	<g id="XMLID_49_">
		<circle id="XMLID_31_" class="st10" cx="199.9" cy="453.3" r="62.2"/>
		<circle id="XMLID_32_" class="st10" cx="157.4" cy="504.8" r="59.3"/>
		<circle id="XMLID_33_" class="st10" cx="262.5" cy="545.4" r="55.7"/>
		<circle id="XMLID_34_" class="st10" cx="190.2" cy="545" r="50.6"/>
		<circle id="XMLID_36_" class="st10" cx="300.3" cy="452.6" r="51.8"/>
		<circle id="XMLID_37_" class="st10" cx="315.4" cy="370.8" r="53.2"/>
		<circle id="XMLID_38_" class="st10" cx="236.9" cy="375.8" r="46.8"/>
		<ellipse id="XMLID_39_" class="st10" cx="268.6" cy="499.8" rx="31.7" ry="30.8"/>
		<circle id="XMLID_40_" class="st10" cx="262.1" cy="430.7" r="31.5"/>
		<circle id="XMLID_41_" class="st10" cx="275.2" cy="326.1" r="44.7"/>
		<circle id="XMLID_42_" class="st10" cx="352.9" cy="316.7" r="52.5"/>
		<circle id="XMLID_43_" class="st10" cx="316.9" cy="292.9" r="33.2"/>
		<circle id="XMLID_44_" class="st10" cx="412.8" cy="385.2" r="44.2"/>
		<circle id="XMLID_45_" class="st10" cx="419.5" cy="362.5" r="37.5"/>
		<circle id="XMLID_46_" class="st10" cx="412.1" cy="315.1" r="20.9"/>
		<circle id="XMLID_47_" class="st10" cx="459.3" cy="392.4" r="36.8"/>
		<circle id="XMLID_48_" class="st10" cx="352.7" cy="392.6" r="47.4"/>
	</g>
</g>
<g id="desk">
	<polygon id="XMLID_29_" class="st11" points="447.1,615 782.3,615 870.5,687 382,687 	"/>
	<rect id="XMLID_30_" x="382" y="687" class="st12" width="485.1" height="91.1"/>
	<rect id="XMLID_71_" x="382" y="778.1" class="st12" width="63" height="25.1"/>
	<rect id="XMLID_72_" x="803.9" y="778.1" class="st12" width="63" height="25.1"/>
	<rect id="XMLID_73_" x="476.5" y="778.1" class="st10" width="63" height="25.1"/>
	<rect id="XMLID_74_" x="703.1" y="778.1" class="st10" width="63" height="25.1"/>
</g>
<g id="backArm">
	<path id="XMLID_78_" class="st13" d="M334.4,591.1c0,0,84.3,58.8,138.5,3l11.2,32.9c0,0-71.3,38.9-151.8,1.8L334.4,591.1z"/>
</g>
<g id="laptop">
	<g id="XMLID_28_">
		
			<rect id="XMLID_26_" x="644" y="520.6" transform="matrix(0.9842 0.1768 -0.1768 0.9842 114.5244 -106)" class="st9" width="16" height="138"/>
		<rect id="XMLID_27_" x="496" y="643.6" class="st9" width="149" height="15"/>
	</g>
</g>
<g id="arm">
	<path id="XMLID_76_" class="st14" d="M309.4,594.2c0,0,87.9,86.3,164.3,35.8l6.3,39.8c0,0-93.2,27.3-181.1-33.5L309.4,594.2z"/>
	<path id="XMLID_79_" class="st2" d="M475.2,639c0,0,5.2-20.3,20.9-23.7c0,0,15.6,3.7,29.6,28.7H521c0,0-10.6-8.4-20.6-13.3
		c-8.1-4.1,13.5,7.8,7.6,20.4c-7.6,15.9-29.8,7.8-29.8,7.8L475.2,639z"/>
	<path id="XMLID_80_" class="st2" d="M475.2,596c0,0,5.2-20.3,20.9-23.7c0,0,15.6,3.7,29.6,28.7H521c0,0-10.6-8.4-20.6-13.3
		c-8.1-4.1,13.5,7.8,7.6,20.4c-7.6,15.9-29.8,7.8-29.8,7.8L475.2,596z"/>
</g>
<g id="speechBuble">
	<circle id="XMLID_5_" class="st15" cx="576" cy="341" r="16"/>
	<circle id="XMLID_6_" class="st15" cx="532.2" cy="369.2" r="11.2"/>
	<circle id="XMLID_7_" class="st15" cx="488" cy="383" r="8"/>
	<rect id="XMLID_8_" class="st16" width="1280" height="800"/>
	<g id="XMLID_107_">
		<defs>
			<rect id="XMLID_53_" width="1280" height="800"/>
		</defs>
		<clipPath id="XMLID_113_">
			<use xlink:href="#XMLID_53_"  style="overflow:visible;"/>
		</clipPath>
		<g id="XMLID_12_" class="st17">
			<ellipse id="XMLID_25_" class="st9" cx="680" cy="223.2" rx="147" ry="132.5"/>
			<ellipse id="XMLID_24_" class="st9" cx="734.6" cy="400.8" rx="132.5" ry="119.4"/>
			<ellipse id="XMLID_23_" class="st9" cx="770.2" cy="105.8" rx="130.3" ry="117.4"/>
			<ellipse id="XMLID_22_" class="st9" cx="926.8" cy="259.7" rx="156.6" ry="141.1"/>
			<ellipse id="XMLID_21_" class="st9" cx="930.1" cy="462.2" rx="113" ry="101.8"/>
			<ellipse id="XMLID_20_" class="st9" cx="1057.6" cy="312.5" rx="141.4" ry="127.4"/>
			<ellipse id="XMLID_18_" class="st9" cx="1104.5" cy="200" rx="90.3" ry="81.4"/>
			<ellipse id="XMLID_17_" class="st9" cx="957.8" cy="82.1" rx="130.8" ry="117.9"/>
		</g>
		<g id="XMLID_19_" class="st18">
			<ellipse id="XMLID_4_" class="st15" cx="701.9" cy="208" rx="141.9" ry="127.9"/>
			<ellipse id="XMLID_9_" class="st15" cx="754.6" cy="379.5" rx="128" ry="115.3"/>
			<ellipse id="XMLID_10_" class="st15" cx="789" cy="94.6" rx="125.8" ry="113.4"/>
			<ellipse id="XMLID_11_" class="st15" cx="940.2" cy="243.2" rx="151.2" ry="136.2"/>
			<ellipse id="XMLID_13_" class="st15" cx="943.4" cy="438.7" rx="109.1" ry="98.3"/>
			<ellipse id="XMLID_14_" class="st15" cx="1066.4" cy="294.2" rx="136.6" ry="123"/>
			<ellipse id="XMLID_15_" class="st15" cx="1111.7" cy="185.6" rx="87.2" ry="78.6"/>
			<ellipse id="XMLID_16_" class="st15" cx="970.1" cy="71.8" rx="126.3" ry="113.8"/>
		</g>
	</g>
</g>
<g id="castle">
	<g id="XMLID_95_">
		<rect id="XMLID_89_" x="802.8" y="221.1" class="st19" width="75.1" height="175"/>
		<rect id="XMLID_90_" x="854.2" y="280.8" class="st19" width="234.5" height="115.4"/>
		<rect id="XMLID_91_" x="1013.3" y="221" class="st19" width="75.1" height="175"/>
		<rect id="XMLID_92_" x="886.3" y="267.3" class="st19" width="35" height="128.8"/>
		<rect id="XMLID_93_" x="930.9" y="266" class="st19" width="35" height="128.8"/>
		<rect id="XMLID_94_" x="974" y="267.3" class="st19" width="35" height="128.8"/>
	</g>
	<path id="XMLID_96_" class="st2" d="M1050,152l-46,83.4c0,0,40.2,21,92.7,0L1050,152z"/>
	<path id="XMLID_97_" class="st2" d="M840,152l-46,83.4c0,0,40.2,21,92.7,0L840,152z"/>
	<path id="XMLID_99_" class="st3" d="M903.8,394.8c0,0-1.2-71.7,44.6-77.2c0,0,48.1,3,43.1,79.5L903.8,394.8z"/>
	<line id="XMLID_100_" class="st20" x1="1048.5" y1="153" x2="1048.5" y2="108"/>
	<path id="XMLID_98_" class="st21" d="M989.9,96.6c0,0,11.4,18.4,30.3,6.2c18.9-12.2,28.8,6.8,28.8,6.8V134c0,0-5.6-19.5-39.2-6.1
		c-33.7,13.4-32.5-12.6-32.5-12.6L989.9,96.6z"/>
	<path id="XMLID_101_" class="st22" d="M840,152c-22,59-10,91.2-10,91.2s1.5,6.4-36-7.9L840,152"/>
	<path id="XMLID_102_" class="st22" d="M1050,152c-22,59-10,91.2-10,91.2s1.5,6.4-36-7.9L1050,152"/>
</g>
<g id="text">
	<rect id="XMLID_81_" x="697.3" y="82.1" class="st16" width="213" height="59.5"/>
	<text id="XMLID_82_" transform="matrix(1 0 0 1 697.34 136.5781)" class="st23 st24">Once</text>
	<rect id="XMLID_83_" x="718.5" y="186.4" class="st16" width="141" height="53.7"/>
	<text id="XMLID_84_" transform="matrix(1 0 0 1 718.5118 213.6641)" class="st23 st25">Upon </text>
	<rect id="XMLID_85_" x="878.1" y="158.7" class="st16" width="105.6" height="55.5"/>
	<text id="XMLID_86_" transform="matrix(1 0 0 1 878.1413 194.9872)" class="st23 st26">a</text>
	<rect id="XMLID_87_" x="774.8" y="249.6" class="st16" width="191.5" height="62.4"/>
	<text id="XMLID_88_" transform="matrix(1 0 0 1 774.7525 304.0504)" class="st23 st24">Time</text>
</g>
</svg>
