<?xml version="1.0" encoding="utf-8"?>
<!-- Generator: Adobe Illustrator 19.0.0, SVG Export Plug-In . SVG Version: 6.00 Build 0)  -->
<svg version="1.1" xmlns="http://www.w3.org/2000/svg" xmlns:xlink="http://www.w3.org/1999/xlink" x="0px" y="0px"
	 viewBox="0 0 960 560" style="enable-background:new 0 0 960 560;" xml:space="preserve">
<style type="text/css">
	.st0{fill:#414D5F;}
	.st1{display:none;}
	.st2{display:inline;opacity:0.52;fill:#1A1A1A;}
	.st3{display:inline;}
	.st4{fill:#4D4D4D;}
	.st5{fill:none;}
	.st6{fill:#231F20;}
	.st7{display:inline;fill:#FBB03B;}
	.st8{display:inline;fill:#1A1A1A;}
	.st9{display:inline;fill:none;stroke:#1A1A1A;stroke-width:8;stroke-miterlimit:10;}
	.st10{display:inline;fill:#4793B8;}
</style>
<g id="background">
	<rect id="XMLID_63_" class="st0" width="960" height="560"/>
</g>
<g id="shadow" class="st1">
	<circle id="XMLID_64_" class="st2" cx="454.3" cy="251.3" r="246.8"/>
</g>
<g id="Layer_2" class="st1">
	<g id="XMLID_2_" class="st3">
		<circle id="XMLID_140_" class="st4" cx="468" cy="251" r="236.5"/>
		<g id="XMLID_78_">
			<g id="XMLID_3_">
				<g id="XMLID_4_">
					<g id="XMLID_5_">
						<g id="XMLID_6_">
							<path id="XMLID_7_" class="st5" d="M614.5,251c0,0-0.1,2.1-0.2,5.7c0,1.8-0.2,4-0.4,6.5c0,0.6-0.1,1.3-0.1,1.9
								c0,0.3,0,0.7-0.1,1c0,0.3-0.1,0.7-0.1,1c-0.2,1.4-0.4,2.9-0.6,4.4c-1.5,12.2-5.9,28.1-13,42.9c-3.6,7.4-7.8,14.4-12.3,20.7
								c-2.1,3.2-4.6,6.1-6.7,8.9c-2.4,2.6-4.4,5.3-6.7,7.4c-1.1,1.1-2.1,2.2-3.1,3.2c-1,1-2,1.9-2.9,2.7c-0.9,0.9-1.7,1.7-2.6,2.4
								c-0.8,0.7-1.6,1.4-2.3,1.9c-1.4,1.2-2.4,2.2-3.2,2.7c-0.8,0.6-1.2,0.9-1.2,0.9l112.3,140.6c0,0,0.9-0.7,2.6-2
								c1.7-1.3,4.1-3.4,7.1-6c1.5-1.3,3.2-2.8,5-4.4c1.8-1.6,3.7-3.4,5.7-5.3c2-1.9,4.2-4,6.4-6.1c2.2-2.2,4.5-4.6,6.8-7.1
								c19.1-19.7,41-49.4,57-82.5c7.9-16.5,14.4-33.8,19.2-50.3c0.6-2.1,1.2-4.1,1.7-6.2c0.6-2,1.1-4,1.6-6.1c0.9-4,1.8-8,2.7-11.8
								c0.5-1.9,0.8-3.8,1.1-5.7c0.3-1.9,0.7-3.7,1-5.6c0.3-1.8,0.6-3.6,0.9-5.4c0.3-1.8,0.5-3.5,0.7-5.2c0.4-3.4,0.8-6.7,1.2-9.8
								c0.1-0.8,0.2-1.5,0.3-2.3c0.1-0.8,0.1-1.5,0.2-2.2c0.1-1.5,0.2-2.9,0.3-4.3c0.4-5.6,0.8-10.4,0.9-14.4
								c0.2-8,0.3-12.5,0.3-12.5H614.5z"/>
						</g>
						<g id="XMLID_8_">
							<path id="XMLID_9_" class="st6" d="M690.7,297.7c0,0-0.4,1.7-1.1,4.6c-0.3,1.5-0.7,3.2-1.2,5.3c-0.6,2-1.2,4.3-1.9,6.8
								c-0.4,1.2-0.7,2.5-1.1,3.9c-0.4,1.3-0.9,2.7-1.4,4.1c-0.5,1.4-1,2.8-1.5,4.3c-0.2,0.7-0.5,1.5-0.8,2.2
								c-0.3,0.7-0.6,1.5-0.9,2.2c-1.2,3-2.4,6.1-3.7,9.2c-1.4,3.1-2.8,6.2-4.2,9.3c-6,12.4-13.3,24.1-19.2,32.5
								c-1.5,2.1-2.8,4.1-4.1,5.7c-1.3,1.6-2.4,3.1-3.4,4.3c-0.9,1.2-1.7,2.1-2.2,2.7c-0.5,0.6-0.8,1-0.8,1l13.9,11.5
								c0,0,0.3-0.4,0.8-1c0.5-0.7,1.3-1.7,2.3-3c1-1.3,2.2-2.8,3.6-4.6c1.4-1.8,2.8-3.9,4.4-6.2c0.8-1.1,1.6-2.3,2.5-3.5
								c0.9-1.2,1.7-2.6,2.5-3.9c0.9-1.3,1.7-2.7,2.6-4.1c0.9-1.4,1.8-2.8,2.7-4.4c1.7-3,3.6-6.1,5.3-9.3c1.7-3.3,3.4-6.6,5-9.9
								c1.5-3.4,3.1-6.8,4.6-10.1c1.4-3.4,2.7-6.7,4-10c0.3-0.8,0.7-1.6,0.9-2.4c0.3-0.8,0.5-1.6,0.8-2.4c0.5-1.6,1.1-3.1,1.6-4.6
								c0.5-1.5,1-3,1.5-4.4c0.4-1.4,0.8-2.8,1.2-4.2c0.8-2.7,1.4-5.1,2.1-7.3c0.5-2.2,1-4.1,1.3-5.7c0.7-3.2,1.1-5,1.1-5
								L690.7,297.7z"/>
						</g>
						<path id="XMLID_10_" class="st6" d="M695.2,259.5l18,0.7c0,0,0,1.5-0.1,3.7c-0.2,2.2-0.4,5.2-0.6,8.1c-0.1,1.5-0.2,3-0.3,4.3
							c-0.2,1.4-0.3,2.7-0.5,3.8c-0.3,2.2-0.5,3.7-0.5,3.7l-17.8-2.4c0,0,0.2-1.4,0.4-3.4c0.1-1,0.3-2.2,0.4-3.5
							c0.1-1.3,0.2-2.7,0.3-4c0.2-2.7,0.4-5.5,0.6-7.5C695.2,260.8,695.2,259.5,695.2,259.5z"/>
						<path id="XMLID_11_" class="st6" d="M632.4,408l13,12.4c0,0-1,1.1-2.6,2.7c-0.4,0.4-0.8,0.8-1.2,1.3c-0.5,0.4-0.9,0.9-1.4,1.4
							c-1,1-2.1,2-3.2,3c-2.1,2-4.3,4.1-6,5.5c-1.7,1.5-2.8,2.4-2.8,2.4l-11.8-13.6c0,0,1-0.9,2.6-2.3c1.6-1.3,3.6-3.2,5.6-5.1
							c1-0.9,2-1.9,2.9-2.8c0.5-0.4,0.9-0.9,1.3-1.3c0.4-0.4,0.8-0.8,1.1-1.2C631.5,409,632.4,408,632.4,408z"/>
					</g>
				</g>
				<g id="XMLID_12_">
					<g id="XMLID_13_">
						<g id="XMLID_14_">
							<path id="XMLID_15_" class="st5" d="M559.3,365.5c0,0-0.4,0.3-1.2,0.9c-0.4,0.3-0.8,0.7-1.4,1.1c-0.5,0.4-1.2,1-1.9,1.5
								c-1.5,1-3.3,2.3-5.3,3.8c-1.1,0.7-2.2,1.4-3.4,2.1c-1.2,0.8-2.4,1.6-3.8,2.3c-1.3,0.8-2.7,1.6-4.2,2.4
								c-1.5,0.8-3,1.5-4.6,2.3c-0.8,0.4-1.6,0.8-2.4,1.2c-0.8,0.4-1.7,0.7-2.5,1.1c-0.8,0.4-1.7,0.8-2.5,1.2
								c-0.4,0.2-0.9,0.4-1.3,0.6c-0.4,0.2-0.9,0.3-1.3,0.5c-7.1,3-14.9,5.4-22.9,7.2l-3,0.7l-3,0.5c-2,0.3-4,0.8-6,1
								c-2,0.2-4,0.5-6,0.8c-2,0.1-3.9,0.3-5.9,0.4c-1,0.1-1.9,0.1-2.9,0.1c-1,0-1.9,0-2.8,0.1c-0.9,0-1.9,0.1-2.8,0.1
								c-0.9,0-1.8-0.1-2.7-0.1c-1.8-0.1-3.5-0.1-5.2-0.1c-1.7-0.1-3.3-0.3-4.8-0.4c-6.2-0.5-11.2-1.3-14.8-2
								c-0.9-0.1-1.7-0.3-2.4-0.4c-0.7-0.2-1.3-0.3-1.7-0.4c-0.9-0.2-1.4-0.3-1.4-0.3l-39.9,175.5c0,0,1.1,0.3,3.2,0.7
								c1,0.2,2.3,0.5,3.9,0.9c1.5,0.3,3.3,0.6,5.3,1c7.9,1.5,19.2,3.3,32.9,4.4c3.4,0.3,7,0.5,10.7,0.8c3.7,0.1,7.5,0.2,11.4,0.3
								c2,0,3.9,0.1,6,0.1c2,0,4-0.1,6.1-0.1c2.1-0.1,4.1-0.1,6.2-0.2c2.1-0.1,4.2-0.1,6.4-0.3c4.3-0.3,8.6-0.7,13-1
								c4.4-0.5,8.8-1.1,13.3-1.6c4.5-0.5,8.9-1.4,13.4-2.2c2.2-0.4,4.5-0.8,6.7-1.2l6.7-1.5c17.9-4.1,35.5-9.6,51.3-16.2
								c1-0.4,2-0.8,3-1.2c1-0.4,1.9-0.9,2.9-1.3c1.9-0.9,3.8-1.7,5.7-2.6c1.9-0.9,3.7-1.7,5.6-2.5c1.8-0.9,3.6-1.8,5.3-2.7
								c3.5-1.8,6.9-3.5,10.2-5.3c3.2-1.8,6.3-3.6,9.3-5.3c3-1.7,5.8-3.5,8.4-5.2c2.6-1.7,5.1-3.3,7.5-4.8c4.6-3.1,8.5-6,11.8-8.3
								c1.6-1.1,3-2.3,4.3-3.2c1.2-1,2.3-1.8,3.1-2.4c1.7-1.3,2.6-2,2.6-2L559.3,365.5z"/>
						</g>
						<g id="XMLID_16_">
							<path id="XMLID_17_" class="st6" d="M570.3,454.2c0,0-0.4,0.2-1.1,0.6c-0.7,0.4-1.8,0.9-3.1,1.6c-1.4,0.6-3,1.4-4.9,2.2
								c-1,0.4-2,0.9-3,1.4c-0.5,0.2-1.1,0.5-1.6,0.7c-0.6,0.2-1.2,0.5-1.8,0.7c-9.5,4-22.6,8.4-36,11.4
								c-13.4,3.1-27.1,4.8-37.4,5.3c-1.3,0.1-2.5,0.2-3.7,0.2c-1.2,0-2.3,0.1-3.3,0.1c-2.1,0.1-3.9,0.1-5.4,0.1c-1.5,0-2.7,0-3.5,0
								c-0.8,0-1.2,0-1.2,0l-0.3,18c0,0,0.5,0,1.3,0c0.9,0,2.1,0.1,3.8,0c1.6,0,3.6-0.1,5.9-0.1c1.1,0,2.3-0.1,3.6-0.1
								c1.3,0,2.6-0.1,4-0.2c11.1-0.6,25.9-2.4,40.4-5.7c14.5-3.3,28.6-8,38.9-12.3c0.6-0.3,1.3-0.5,1.9-0.8
								c0.6-0.3,1.2-0.5,1.8-0.8c1.2-0.5,2.3-1,3.3-1.5c2.1-0.9,3.9-1.7,5.3-2.4c1.5-0.7,2.6-1.3,3.4-1.7c0.8-0.4,1.2-0.6,1.2-0.6
								L570.3,454.2z"/>
						</g>
						<path id="XMLID_18_" class="st6" d="M603.1,433.9l10.7,14.5c0,0-1.2,0.9-3,2.2c-0.9,0.6-2,1.4-3.1,2.2
							c-1.1,0.8-2.3,1.7-3.6,2.5c-2.5,1.6-5,3.2-6.9,4.4c-1.9,1.2-3.2,1.9-3.2,1.9l-9.3-15.4c0,0,1.2-0.7,2.9-1.8
							c1.7-1.1,4.1-2.6,6.4-4.1c1.2-0.7,2.3-1.6,3.3-2.3c1.1-0.7,2-1.4,2.9-2C602,434.7,603.1,433.9,603.1,433.9z"/>
						<path id="XMLID_19_" class="st6" d="M447.7,477.5l-1.6,17.9c0,0-0.4,0-1-0.1c-0.6-0.1-1.6-0.1-2.7-0.2c-2.2-0.3-5.2-0.7-8.1-1
							c-1.5-0.2-2.9-0.3-4.3-0.6c-1.4-0.2-2.6-0.5-3.7-0.7c-2.2-0.4-3.7-0.7-3.7-0.7l3.3-17.7c0,0,1.4,0.2,3.4,0.6
							c1,0.2,2.2,0.4,3.5,0.6c1.3,0.2,2.6,0.3,4,0.5c2.7,0.3,5.5,0.7,7.5,1c1,0.1,1.9,0.2,2.5,0.2
							C447.4,477.4,447.7,477.5,447.7,477.5z"/>
					</g>
				</g>
				<g id="XMLID_20_">
					<g id="XMLID_21_">
						<g id="XMLID_22_">
							<path id="XMLID_23_" class="st5" d="M435.3,393.8c0,0-0.5-0.1-1.4-0.3c-0.9-0.2-2.3-0.4-4-1c-0.9-0.2-1.8-0.5-2.8-0.8
								c-0.5-0.1-1.1-0.3-1.6-0.4c-0.6-0.1-1.1-0.3-1.7-0.5c-1.2-0.4-2.4-0.8-3.8-1.3c-0.7-0.2-1.3-0.4-2-0.7
								c-0.7-0.2-1.4-0.6-2.1-0.8c-11.4-4.3-26.2-11.9-39-22.3c-6.4-5.1-12.4-10.9-17.6-16.6c-5.2-5.7-9.4-11.6-13-16.6
								c-3.4-5.2-5.9-9.6-7.6-12.8c-1.6-3.2-2.6-5-2.6-5l-162.1,78.2c0,0,2.1,4.1,5.7,11.2c3.8,7.1,9.4,17,17,28.5
								c7.7,11.3,17.3,24.2,28.8,37c11.5,12.7,24.8,25.4,39.1,36.8c14.3,11.4,29.5,21.7,44.6,30c3.7,2.2,7.5,4,11.2,5.9
								c1.8,0.9,3.7,1.9,5.5,2.8c1.8,0.9,3.6,1.7,5.4,2.5c3.6,1.6,7.1,3.2,10.5,4.7c3.4,1.4,6.8,2.7,10,4c1.6,0.6,3.2,1.3,4.7,1.8
								c1.6,0.5,3.1,1.1,4.6,1.6c3,1,5.8,2,8.4,2.8c1.3,0.5,2.6,0.8,3.9,1.2c1.3,0.4,2.5,0.7,3.6,1c2.3,0.7,4.5,1.3,6.4,1.8
								c3.9,1.1,6.9,1.8,9,2.3c2.1,0.5,3.2,0.7,3.2,0.7L435.3,393.8z"/>
						</g>
						<g id="XMLID_24_">
							<path id="XMLID_25_" class="st6" d="M372.9,457.7c0,0-0.4-0.2-1.1-0.5c-0.7-0.3-1.8-0.8-3.2-1.5c-1.3-0.7-3-1.5-4.8-2.5
								c-1.9-1-4-2-6.2-3.3c-9.1-4.9-20.6-12.5-31.4-21.1c-2.8-2.1-5.3-4.4-7.9-6.6c-1.3-1.1-2.6-2.2-3.8-3.3
								c-1.2-1.1-2.4-2.3-3.6-3.4c-1.2-1.1-2.3-2.2-3.4-3.3c-1.1-1.1-2.1-2.2-3.2-3.3c-1-1.1-2-2.1-3-3.1c-1-1-1.9-2-2.7-3
								c-1.7-1.9-3.2-3.7-4.6-5.3c-0.7-0.8-1.3-1.5-1.9-2.2c-0.6-0.7-1.1-1.4-1.5-2c-1.9-2.4-2.9-3.7-2.9-3.7l-14.3,11
								c0,0,1.1,1.5,3.2,4c0.5,0.6,1.1,1.3,1.7,2.1c0.6,0.8,1.3,1.5,2.1,2.4c1.5,1.7,3.2,3.6,5,5.7c0.9,1.1,1.9,2.1,2.9,3.2
								c1,1.1,2.1,2.2,3.2,3.4c1.1,1.1,2.2,2.4,3.4,3.5c1.2,1.2,2.4,2.3,3.7,3.5c1.3,1.2,2.5,2.4,3.8,3.7c1.3,1.2,2.7,2.4,4.1,3.6
								c2.8,2.4,5.5,4.9,8.5,7.1c11.6,9.3,24.1,17.4,33.8,22.7c2.4,1.4,4.7,2.5,6.7,3.6c2,1,3.8,1.9,5.2,2.7
								c1.4,0.7,2.6,1.2,3.4,1.6c0.8,0.4,1.2,0.5,1.2,0.5L372.9,457.7z"/>
						</g>
						<path id="XMLID_26_" class="st6" d="M409.2,470.7l-4.6,17.4c0,0-1.4-0.4-3.6-1c-1.1-0.3-2.3-0.7-3.7-1
							c-0.7-0.2-1.4-0.4-2.1-0.6c-0.7-0.2-1.4-0.5-2.1-0.7c-2.8-1-5.6-1.9-7.7-2.6c-1.1-0.4-1.9-0.6-2.5-0.9
							c-0.6-0.2-0.9-0.4-0.9-0.4l6.3-16.9c0,0,0.3,0.1,0.9,0.3c0.6,0.2,1.4,0.5,2.3,0.8c2,0.7,4.6,1.5,7.2,2.4
							c0.7,0.2,1.3,0.5,1.9,0.6c0.7,0.2,1.3,0.4,1.9,0.5c1.2,0.4,2.4,0.7,3.4,1C407.9,470.3,409.2,470.7,409.2,470.7z"/>
						<path id="XMLID_27_" class="st6" d="M278.3,376.4l-15,9.9c0,0-0.8-1.2-2-3.1c-0.6-0.9-1.3-2-2.1-3.2c-0.4-0.6-0.8-1.2-1.2-1.8
							c-0.4-0.6-0.7-1.3-1.1-1.9c-1.5-2.6-3-5.1-4.1-7.1c-0.6-1-1-1.8-1.3-2.4c-0.3-0.6-0.5-0.9-0.5-0.9l15.9-8.4
							c0,0,0.2,0.3,0.4,0.8c0.3,0.5,0.7,1.3,1.2,2.2c1,1.8,2.4,4.2,3.8,6.6c0.3,0.6,0.7,1.2,1,1.8c0.4,0.6,0.7,1.1,1.1,1.7
							c0.7,1.1,1.3,2.1,1.9,3C277.5,375.2,278.3,376.4,278.3,376.4z"/>
					</g>
				</g>
				<g id="XMLID_28_">
					<g id="XMLID_29_">
						<g id="XMLID_30_">
							<path id="XMLID_31_" class="st5" d="M335.9,314.5c0,0-0.1-0.1-0.2-0.3c-0.1-0.2-0.2-0.6-0.4-1c-0.4-0.9-1-2.2-1.7-3.8
								c-1.4-3.3-3.3-8-5.2-13.9c-0.3-0.7-0.5-1.5-0.7-2.2c-0.2-0.8-0.4-1.6-0.7-2.3c-0.4-1.6-1-3.2-1.3-4.9
								c-0.4-1.7-0.8-3.5-1.2-5.3c-0.3-1.8-0.6-3.7-1-5.6c-1.2-7.6-2-15.8-2-24.1c0.1-8.3,0.8-16.5,2-24.1c0.4-1.9,0.7-3.8,1-5.6
								c0.4-1.8,0.9-3.6,1.2-5.3c0.3-1.7,0.9-3.4,1.3-4.9c0.2-0.8,0.4-1.6,0.7-2.3c0.2-0.8,0.4-1.5,0.7-2.2
								c1.9-5.8,3.8-10.6,5.2-13.9c0.7-1.6,1.3-2.9,1.7-3.8c0.2-0.4,0.3-0.8,0.4-1c0.1-0.2,0.2-0.3,0.2-0.3l-162.1-78.2
								c0,0-1.9,4.2-5.2,11.5c-3.2,7.4-7.5,18-11.7,31.1c-0.6,1.6-1.1,3.3-1.5,5c-0.5,1.7-1,3.5-1.5,5.3c-1,3.6-2.1,7.3-2.9,11.1
								c-0.9,3.8-1.8,7.8-2.7,11.8c-0.8,4.1-1.5,8.2-2.3,12.5c-2.8,17-4.4,35.2-4.4,53.5c0.1,18.2,1.7,36.5,4.4,53.5
								c0.7,4.2,1.5,8.4,2.3,12.5c0.9,4,1.8,8,2.7,11.8c0.8,3.9,1.9,7.5,2.9,11.1c0.5,1.8,1,3.5,1.5,5.3c0.5,1.7,1,3.4,1.5,5
								c4.2,13.1,8.5,23.8,11.7,31.1c3.3,7.3,5.2,11.5,5.2,11.5L335.9,314.5z"/>
						</g>
						<g id="XMLID_32_">
							<path id="XMLID_33_" class="st6" d="M247.1,305.5c0,0-0.4-1.7-1.1-4.6c-0.2-0.7-0.4-1.5-0.6-2.4c-0.2-0.9-0.4-1.8-0.6-2.9
								c-0.4-2.1-0.8-4.4-1.2-6.9c-0.2-1.3-0.5-2.6-0.7-4c-0.2-1.4-0.4-2.8-0.5-4.3c-0.3-2.9-0.9-6-1-9.2c-0.1-1.6-0.2-3.2-0.4-4.9
								c-0.1-1.7-0.3-3.3-0.3-5c-0.1-3.4-0.2-6.8-0.3-10.3c0.1-3.4,0.2-6.9,0.3-10.3c0-1.7,0.2-3.4,0.3-5c0.1-1.7,0.3-3.3,0.4-4.9
								c0.2-3.2,0.7-6.3,1-9.2c0.4-2.9,0.7-5.7,1.2-8.2c0.5-2.5,0.9-4.9,1.2-6.9c0.2-1,0.4-2,0.6-2.9c0.2-0.9,0.4-1.7,0.6-2.4
								c0.7-2.9,1.1-4.6,1.1-4.6l-17.5-4.3c0,0-0.4,1.8-1.1,5c-0.2,0.8-0.4,1.7-0.6,2.6c-0.2,1-0.5,2-0.6,3.1
								c-0.4,2.2-0.8,4.7-1.3,7.5c-0.5,2.7-0.9,5.7-1.3,8.9c-0.4,3.2-0.9,6.5-1.1,10c-0.1,1.7-0.3,3.5-0.4,5.3
								c-0.1,1.8-0.3,3.6-0.3,5.4c-0.1,3.6-0.2,7.4-0.3,11.1c0.1,3.7,0.2,7.4,0.3,11.1c0,1.8,0.2,3.6,0.3,5.4
								c0.1,1.8,0.3,3.5,0.4,5.3c0.2,3.5,0.7,6.8,1.1,10c0.2,1.6,0.4,3.1,0.6,4.6c0.2,1.5,0.5,2.9,0.7,4.3c0.5,2.7,0.9,5.3,1.3,7.5
								c0.2,1.1,0.4,2.1,0.6,3.1c0.2,1,0.4,1.8,0.6,2.6c0.7,3.2,1.1,5,1.1,5L247.1,305.5z"/>
						</g>
						<path id="XMLID_34_" class="st6" d="M259.6,342l-16.5,7.2c0,0-0.2-0.3-0.4-0.9c-0.3-0.6-0.7-1.4-1.1-2.5
							c-0.8-2.1-1.9-4.8-3-7.6c-1.1-2.7-2-5.6-2.8-7.7c-0.7-2.1-1.2-3.5-1.2-3.5l17.1-5.6c0,0,0.4,1.3,1.1,3.3
							c0.7,1.9,1.5,4.6,2.6,7.1c1,2.6,2,5.1,2.8,7c0.4,1,0.8,1.7,1,2.3C259.4,341.7,259.6,342,259.6,342z"/>
						<path id="XMLID_35_" class="st6" d="M251.7,180.8l-17.1-5.6c0,0,0.5-1.4,1.2-3.5c0.7-2.1,1.6-4.9,2.7-7.7
							c1.1-2.8,2.2-5.5,3-7.6c0.4-1,0.8-1.9,1.1-2.5c0.3-0.6,0.4-0.9,0.4-0.9l16.5,7.2c0,0-0.1,0.3-0.4,0.9c-0.2,0.5-0.6,1.3-1,2.3
							c-0.8,1.9-1.8,4.5-2.8,7c-1.1,2.5-1.9,5.2-2.5,7.1C252.1,179.5,251.7,180.8,251.7,180.8z"/>
					</g>
				</g>
				<g id="XMLID_36_">
					<g id="XMLID_37_">
						<g id="XMLID_38_">
							<path id="XMLID_39_" class="st5" d="M335.9,187.5c0,0,1-1.8,2.6-5c1.7-3.2,4.3-7.6,7.6-12.8c3.5-5.1,7.8-10.9,13-16.6
								c5.2-5.7,11.2-11.4,17.6-16.6c12.8-10.5,27.6-18,39-22.3c0.7-0.3,1.4-0.6,2.1-0.8c0.7-0.2,1.4-0.5,2-0.7
								c1.3-0.5,2.6-0.9,3.8-1.3c0.6-0.2,1.2-0.4,1.7-0.5c0.6-0.2,1.1-0.3,1.6-0.4c1-0.3,2-0.6,2.8-0.8c1.7-0.6,3.1-0.8,4-1
								c0.9-0.2,1.4-0.3,1.4-0.3L395.4-67.3c0,0-1.1,0.3-3.2,0.7c-2.1,0.5-5.2,1.1-9,2.3c-1.9,0.5-4.1,1.2-6.4,1.8
								c-1.2,0.3-2.4,0.7-3.6,1c-1.3,0.4-2.6,0.7-3.9,1.2c-2.7,0.9-5.5,1.8-8.4,2.8c-1.5,0.5-3,1-4.6,1.6c-1.5,0.6-3.1,1.2-4.7,1.8
								c-3.2,1.3-6.5,2.6-10,4c-3.4,1.5-6.9,3.1-10.5,4.7c-1.8,0.8-3.6,1.6-5.4,2.5c-1.8,0.9-3.6,1.8-5.5,2.8
								c-3.7,1.9-7.5,3.7-11.2,5.9c-15,8.3-30.3,18.5-44.6,30c-14.3,11.4-27.6,24.1-39.1,36.8c-11.5,12.7-21.1,25.6-28.8,37
								C189,81,183.3,91,179.6,98c-3.6,7.1-5.7,11.2-5.7,11.2L335.9,187.5z"/>
						</g>
						<g id="XMLID_40_">
							<path id="XMLID_41_" class="st6" d="M287.7,112.3c0,0,1.1-1.4,2.9-3.7c1.8-2.4,4.7-5.6,8.1-9.5c0.8-1,1.8-2,2.7-3
								c1-1,2-2,3-3.1c1-1.1,2-2.2,3.2-3.3c1.1-1.1,2.3-2.2,3.4-3.3c1.2-1.1,2.4-2.2,3.6-3.4c1.2-1.1,2.5-2.2,3.8-3.3
								c2.6-2.2,5.1-4.5,7.9-6.6c10.7-8.6,22.3-16.2,31.4-21.1c2.2-1.3,4.4-2.3,6.2-3.3c1.9-1,3.5-1.8,4.8-2.5
								c1.3-0.7,2.4-1.1,3.2-1.5c0.7-0.3,1.1-0.5,1.1-0.5L365.3,28c0,0-0.4,0.2-1.2,0.5c-0.8,0.4-2,0.8-3.4,1.6
								c-1.4,0.7-3.2,1.6-5.2,2.7c-2,1-4.3,2.1-6.7,3.6c-9.8,5.3-22.2,13.5-33.8,22.7c-3,2.2-5.7,4.7-8.5,7.1
								c-1.4,1.2-2.8,2.4-4.1,3.6c-1.3,1.2-2.6,2.5-3.8,3.7c-1.3,1.2-2.5,2.4-3.7,3.5c-1.2,1.2-2.3,2.4-3.4,3.5
								c-1.1,1.2-2.2,2.3-3.2,3.4c-1,1.1-2,2.1-2.9,3.2c-3.6,4.2-6.8,7.7-8.7,10.3c-2,2.6-3.2,4-3.2,4L287.7,112.3z"/>
						</g>
						<path id="XMLID_42_" class="st6" d="M266.9,144.8l-15.9-8.4c0,0,0.2-0.3,0.5-0.9c0.3-0.6,0.7-1.4,1.3-2.4
							c1.1-1.9,2.6-4.5,4.1-7.1c1.4-2.6,3.1-5,4.3-6.9c1.2-1.9,2-3.1,2-3.1l15,9.9c0,0-0.7,1.2-1.9,2.9c-1.1,1.8-2.7,4-4,6.4
							c-1.4,2.4-2.7,4.8-3.8,6.6c-0.5,0.9-0.9,1.7-1.2,2.2C267.1,144.5,266.9,144.8,266.9,144.8z"/>
						<path id="XMLID_43_" class="st6" d="M388,38.1l-6.3-16.8c0,0,0.3-0.1,0.9-0.4c0.6-0.3,1.5-0.6,2.5-0.9
							c2.1-0.7,4.9-1.7,7.7-2.6c0.7-0.2,1.4-0.5,2.1-0.7c0.7-0.2,1.4-0.4,2.1-0.6c1.3-0.4,2.6-0.7,3.7-1c2.1-0.6,3.6-1,3.6-1
							l4.7,17.4c0,0-1.3,0.4-3.3,0.9c-1,0.3-2.1,0.6-3.4,1c-0.6,0.2-1.3,0.4-1.9,0.5c-0.6,0.2-1.3,0.4-1.9,0.7
							c-2.6,0.9-5.2,1.8-7.2,2.4c-1,0.3-1.8,0.6-2.3,0.8C388.3,38,388,38.1,388,38.1z"/>
					</g>
				</g>
				<g id="XMLID_44_">
					<g id="XMLID_45_">
						<g id="XMLID_46_">
							<path id="XMLID_47_" class="st5" d="M435.3,108.2c0,0,0.5-0.1,1.4-0.3c0.5-0.1,1-0.2,1.7-0.4c0.7-0.1,1.5-0.2,2.4-0.4
								c3.5-0.7,8.6-1.5,14.8-2c1.5-0.1,3.2-0.2,4.8-0.4c1.7,0,3.4-0.1,5.2-0.1c0.9,0,1.8-0.1,2.7-0.1c0.9,0,1.8,0.1,2.8,0.1
								c0.9,0,1.9,0,2.8,0.1c1,0,1.9,0,2.9,0.1c1.9,0.2,3.9,0.3,5.9,0.4c2,0.2,4,0.5,6,0.8c2,0.2,4,0.7,6,1l3,0.5l3,0.7
								c8,1.8,15.8,4.2,22.9,7.2c0.4,0.2,0.9,0.3,1.3,0.5c0.4,0.2,0.9,0.4,1.3,0.6c0.9,0.4,1.7,0.8,2.5,1.2c0.8,0.4,1.7,0.7,2.5,1.1
								c0.8,0.4,1.6,0.8,2.4,1.2c1.6,0.8,3.1,1.5,4.6,2.3c1.4,0.8,2.8,1.6,4.2,2.4c1.4,0.7,2.6,1.6,3.8,2.3c1.2,0.8,2.3,1.5,3.4,2.1
								c2,1.4,3.8,2.7,5.3,3.8c0.8,0.5,1.4,1,1.9,1.5c0.5,0.4,1,0.8,1.4,1.1c0.8,0.6,1.2,0.9,1.2,0.9L671.6-4.2c0,0-0.9-0.7-2.6-2
								c-0.8-0.7-1.9-1.5-3.1-2.4c-1.2-1-2.6-2.1-4.3-3.2c-3.3-2.3-7.2-5.2-11.8-8.3c-2.3-1.5-4.8-3.1-7.5-4.8
								c-2.6-1.7-5.4-3.5-8.4-5.2c-3-1.7-6.1-3.5-9.3-5.3c-3.2-1.8-6.7-3.5-10.2-5.3c-1.8-0.9-3.5-1.8-5.3-2.7
								c-1.8-0.8-3.7-1.7-5.6-2.5c-1.9-0.8-3.8-1.7-5.7-2.6c-1-0.4-1.9-0.9-2.9-1.3c-1-0.4-2-0.8-3-1.2
								c-15.9-6.6-33.5-12.2-51.3-16.2l-6.7-1.5c-2.3-0.4-4.5-0.8-6.7-1.2c-4.5-0.8-9-1.7-13.4-2.2c-4.5-0.6-8.9-1.2-13.3-1.6
								c-4.4-0.3-8.7-0.7-13-1c-2.1-0.2-4.3-0.2-6.4-0.3c-2.1-0.1-4.2-0.1-6.2-0.2c-2.1,0-4.1-0.1-6.1-0.1c-2,0-4,0.1-6,0.1
								c-3.9,0.1-7.7,0.2-11.4,0.3c-3.7,0.3-7.2,0.5-10.7,0.8c-13.7,1.1-25,2.9-32.9,4.4c-2,0.4-3.7,0.7-5.3,1
								c-1.5,0.3-2.8,0.6-3.9,0.9c-2.1,0.5-3.2,0.7-3.2,0.7L435.3,108.2z"/>
						</g>
						<g id="XMLID_48_">
							<path id="XMLID_49_" class="st6" d="M464,23.5c0,0,0.4,0,1.2,0c0.8,0,2-0.1,3.5-0.1c1.5,0,3.3,0.1,5.4,0.1
								c1,0,2.2,0.1,3.3,0.1c1.2,0,2.4,0,3.7,0.2c10.3,0.6,24,2.3,37.4,5.3c13.4,3,26.5,7.4,36,11.4c1.2,0.5,2.4,0.9,3.4,1.4
								c1.1,0.5,2.1,0.9,3,1.4c1.9,0.9,3.6,1.6,4.9,2.2c1.4,0.6,2.4,1.2,3.1,1.6c0.7,0.4,1.1,0.6,1.1,0.6l8.1-16.1
								c0,0-0.4-0.2-1.2-0.6c-0.8-0.4-1.9-1-3.4-1.7c-1.5-0.7-3.3-1.5-5.3-2.4c-1-0.5-2.1-1-3.3-1.5c-1.1-0.5-2.4-1-3.7-1.5
								c-10.3-4.3-24.4-9-38.9-12.3c-14.5-3.3-29.3-5.1-40.4-5.7c-1.4-0.1-2.7-0.2-4-0.2c-1.3,0-2.5-0.1-3.6-0.1
								c-2.3-0.1-4.2-0.1-5.9-0.1c-1.6,0-2.9,0-3.8,0.1c-0.9,0-1.3,0-1.3,0L464,23.5z"/>
						</g>
						<path id="XMLID_50_" class="st6" d="M425.7,27.6l-3.3-17.7c0,0,1.5-0.3,3.7-0.7c1.1-0.2,2.4-0.4,3.7-0.7
							c1.4-0.3,2.8-0.4,4.3-0.6c2.9-0.4,5.9-0.7,8.1-1c1.1-0.2,2-0.2,2.7-0.2c0.6,0,1-0.1,1-0.1l1.6,17.9c0,0-0.3,0-0.9,0.1
							c-0.6,0.1-1.5,0.1-2.5,0.2c-2,0.3-4.8,0.6-7.5,1c-1.4,0.2-2.7,0.3-4,0.6c-1.3,0.2-2.5,0.4-3.5,0.6
							C427,27.3,425.7,27.6,425.7,27.6z"/>
						<path id="XMLID_51_" class="st6" d="M584.5,55.7l9.2-15.4c0,0,1.3,0.7,3.2,1.9c1.9,1.2,4.4,2.8,6.9,4.4
							c1.3,0.8,2.5,1.7,3.6,2.5c1.1,0.8,2.2,1.6,3.1,2.2c1.8,1.3,3,2.2,3,2.2l-10.7,14.5c0,0-1.1-0.8-2.8-2c-0.8-0.6-1.8-1.3-2.9-2
							c-1-0.7-2.2-1.6-3.3-2.3c-2.3-1.5-4.6-3-6.4-4.1C585.8,56.4,584.5,55.7,584.5,55.7z"/>
					</g>
				</g>
				<g id="XMLID_52_">
					<g id="XMLID_53_">
						<g id="XMLID_54_">
							<path id="XMLID_55_" class="st5" d="M559.3,136.5c0,0,0.4,0.3,1.2,0.9c0.8,0.6,1.8,1.6,3.2,2.7c0.7,0.6,1.4,1.2,2.3,1.9
								c0.9,0.7,1.6,1.6,2.6,2.4c0.9,0.9,1.9,1.8,2.9,2.7c1,1,2,2.1,3.1,3.2c2.2,2.2,4.3,4.8,6.7,7.4c2.1,2.8,4.6,5.7,6.7,8.9
								c4.4,6.3,8.7,13.4,12.3,20.7c7.1,14.8,11.4,30.7,13,42.9c0.2,1.5,0.4,3,0.6,4.4c0,0.3,0.1,0.7,0.1,1c0,0.3,0,0.7,0.1,1
								c0,0.7,0.1,1.3,0.1,1.9c0.2,2.5,0.4,4.7,0.4,6.5c0.1,3.6,0.2,5.7,0.2,5.7h180c0,0-0.1-4.6-0.3-12.5c0-4-0.5-8.8-0.9-14.4
								c-0.1-1.4-0.2-2.8-0.3-4.3c-0.1-0.7-0.1-1.5-0.2-2.2c-0.1-0.8-0.2-1.5-0.3-2.3c-0.4-3.1-0.8-6.4-1.2-9.8
								c-0.2-1.7-0.4-3.4-0.7-5.2c-0.3-1.8-0.6-3.6-0.9-5.4c-0.3-1.8-0.7-3.7-1-5.6c-0.4-1.9-0.7-3.8-1.1-5.7
								c-0.9-3.8-1.8-7.8-2.7-11.8c-0.4-2-1-4-1.6-6.1c-0.6-2-1.2-4.1-1.7-6.2c-4.8-16.5-11.3-33.8-19.2-50.3
								c-15.9-33.1-37.9-62.8-57-82.5c-2.4-2.5-4.6-4.9-6.8-7.1c-2.3-2.2-4.4-4.2-6.4-6.1c-2-1.9-3.9-3.8-5.7-5.3
								c-1.8-1.6-3.5-3-5-4.4c-3-2.6-5.4-4.7-7.1-6c-1.7-1.3-2.6-2-2.6-2L559.3,136.5z"/>
						</g>
						<g id="XMLID_56_">
							<path id="XMLID_57_" class="st6" d="M643.4,106c0,0,0.3,0.3,0.8,1c0.5,0.6,1.2,1.6,2.2,2.7c0.9,1.2,2.1,2.6,3.4,4.3
								c1.3,1.6,2.6,3.6,4.1,5.7c6,8.4,13.3,20.1,19.3,32.5c1.4,3.1,2.8,6.3,4.2,9.3c1.3,3.1,2.5,6.2,3.7,9.2
								c0.3,0.8,0.6,1.5,0.9,2.2c0.3,0.7,0.5,1.5,0.8,2.2c0.5,1.5,1,2.9,1.5,4.3c0.5,1.4,1,2.8,1.4,4.1c0.4,1.3,0.7,2.6,1.1,3.9
								c0.7,2.5,1.3,4.8,1.9,6.8c0.5,2,0.9,3.8,1.2,5.3c0.7,2.9,1.1,4.6,1.1,4.6l17.6-3.7c0,0-0.4-1.8-1.1-5
								c-0.4-1.6-0.8-3.5-1.3-5.7c-0.6-2.2-1.3-4.6-2.1-7.3c-0.4-1.3-0.8-2.7-1.2-4.2c-0.4-1.4-1-2.9-1.5-4.4
								c-0.5-1.5-1-3.1-1.6-4.6c-0.3-0.8-0.5-1.6-0.8-2.4c-0.3-0.8-0.6-1.6-0.9-2.4c-1.3-3.2-2.5-6.6-4-10c-1.5-3.3-3-6.7-4.6-10.1
								c-6.4-13.4-14.3-26-20.8-35.1c-1.6-2.3-3-4.4-4.4-6.2c-1.4-1.8-2.6-3.3-3.6-4.6c-1-1.3-1.8-2.3-2.3-3c-0.5-0.7-0.8-1-0.8-1
								L643.4,106z"/>
						</g>
						<path id="XMLID_58_" class="st6" d="M616.3,78.6L628,65c0,0,1.1,1,2.8,2.4c0.8,0.7,1.8,1.5,2.8,2.5c1,1,2.1,2,3.2,3
							c1.1,1,2.1,2,3.2,3c0.5,0.5,1,0.9,1.4,1.4c0.5,0.4,0.9,0.9,1.2,1.3c1.5,1.6,2.6,2.7,2.6,2.7l-13,12.5c0,0-0.9-1-2.4-2.5
							c-0.4-0.4-0.7-0.8-1.2-1.2c-0.4-0.4-0.9-0.8-1.3-1.3c-0.9-0.9-1.9-1.8-2.9-2.8c-1-0.9-2-1.9-2.9-2.8c-0.9-0.9-1.9-1.6-2.6-2.3
							C617.3,79.5,616.3,78.6,616.3,78.6z"/>
						<path id="XMLID_59_" class="st6" d="M693.3,220.4l17.8-2.4c0,0,0.2,1.5,0.5,3.7c0.1,1.1,0.3,2.4,0.5,3.8
							c0.2,1.4,0.2,2.9,0.4,4.3c0.2,3,0.4,5.9,0.6,8.1c0.1,1.1,0.1,2,0.1,2.7c0,0.6,0,1,0,1l-18,0.7c0,0,0-0.3,0-0.9
							c0-0.6,0-1.5-0.1-2.5c-0.2-2.1-0.4-4.8-0.6-7.5c-0.1-1.4-0.2-2.7-0.3-4c-0.2-1.3-0.3-2.5-0.4-3.5
							C693.5,221.7,693.3,220.4,693.3,220.4z"/>
					</g>
				</g>
			</g>
		</g>
	</g>
</g>
<g id="Layer_1" class="st1">
	<circle id="XMLID_60_" class="st7" cx="333.8" cy="175.5" r="10.9"/>
	<circle id="XMLID_61_" class="st7" cx="333.8" cy="213.5" r="10.9"/>
	<rect id="XMLID_62_" x="327.7" y="236" class="st8" width="6" height="23.5"/>
	<circle id="XMLID_86_" class="st7" cx="333.8" cy="130.5" r="10.9"/>
	<line id="XMLID_66_" class="st9" x1="477.2" y1="94.9" x2="616.6" y2="402"/>
	<line id="XMLID_67_" class="st9" x1="614" y1="398.4" x2="653" y2="396.2"/>
	<rect id="XMLID_68_" x="327.7" y="252.5" class="st8" width="223.9" height="8"/>
	<polygon id="XMLID_69_" class="st10" points="293.6,351.8 434,93 479.6,93 347,352.1 	"/>
</g>
</svg>
